<svg xmlns="http://www.w3.org/2000/svg" xmlns:xlink="http://www.w3.org/1999/xlink" width="1080" zoomAndPan="magnify" viewBox="0 0 810 809.999993" height="1080" preserveAspectRatio="xMidYMid meet" version="1.0"><defs><clipPath id="45529e134f"><path d="M 3.515625 3.515625 L 810 3.515625 L 810 810 L 3.515625 810 Z M 3.515625 3.515625 " clip-rule="nonzero"/></clipPath><clipPath id="e13dc49ffb"><path d="M 129.527344 3.515625 L 683.988281 3.515625 C 753.582031 3.515625 810 59.933594 810 129.527344 L 810 683.988281 C 810 753.582031 753.582031 810 683.988281 810 L 129.527344 810 C 59.933594 810 3.515625 753.582031 3.515625 683.988281 L 3.515625 129.527344 C 3.515625 59.933594 59.933594 3.515625 129.527344 3.515625 Z M 129.527344 3.515625 " clip-rule="nonzero"/></clipPath><clipPath id="46dc161863"><path d="M 159.851562 146.460938 L 653.351562 146.460938 L 653.351562 663.210938 L 159.851562 663.210938 Z M 159.851562 146.460938 " clip-rule="nonzero"/></clipPath></defs><g clip-path="url(#45529e134f)"><g clip-path="url(#e13dc49ffb)"><path fill="#8a8a8a" d="M 3.515625 3.515625 L 810 3.515625 L 810 810 L 3.515625 810 Z M 3.515625 3.515625 " fill-opacity="1" fill-rule="nonzero"/></g></g><g clip-path="url(#46dc161863)"><path fill="#ffffff" d="M 564.457031 198.191406 L 540.453125 198.191406 L 540.453125 162.34375 C 540.453125 153.71875 533.4375 146.769531 524.878906 146.769531 C 516.257812 146.769531 509.304688 153.785156 509.304688 162.34375 L 509.304688 198.253906 L 295.257812 198.253906 L 295.257812 162.34375 C 295.257812 153.71875 288.242188 146.769531 279.683594 146.769531 C 271.058594 146.769531 264.109375 153.785156 264.109375 162.34375 L 264.109375 198.253906 L 248.984375 198.253906 C 199.753906 198.253906 159.851562 238.15625 159.851562 287.386719 L 159.851562 574.09375 C 159.851562 623.328125 199.753906 663.226562 248.984375 663.226562 L 564.457031 663.226562 C 613.691406 663.226562 653.59375 623.328125 653.59375 574.09375 L 653.59375 287.386719 C 653.65625 238.15625 613.691406 198.191406 564.457031 198.191406 Z M 509.242188 214.664062 L 509.242188 247.035156 C 509.242188 255.660156 516.257812 262.609375 524.816406 262.609375 C 533.4375 262.609375 540.390625 255.597656 540.390625 247.035156 L 540.390625 215.886719 C 550.363281 221.679688 557.121094 232.492188 557.121094 244.847656 C 557.121094 263.320312 542.128906 278.3125 523.65625 278.3125 C 505.1875 278.3125 490.191406 263.320312 490.191406 244.847656 C 490.320312 231.527344 498.042969 220.070312 509.242188 214.664062 Z M 264.042969 215.246094 L 264.042969 247.035156 C 264.042969 255.660156 271.058594 262.609375 279.617188 262.609375 C 288.242188 262.609375 295.191406 255.597656 295.191406 247.035156 L 295.191406 215.246094 C 305.8125 220.84375 313.019531 231.976562 313.019531 244.785156 C 313.019531 263.253906 298.023438 278.25 279.554688 278.25 C 261.085938 278.25 246.089844 263.253906 246.089844 244.785156 C 246.21875 231.976562 253.488281 220.84375 264.042969 215.246094 Z M 622.445312 574.03125 C 622.445312 606.015625 596.445312 631.949219 564.523438 631.949219 L 248.984375 631.949219 C 217 631.949219 191.066406 605.949219 191.066406 574.03125 L 191.066406 336.554688 L 622.445312 336.554688 Z M 622.445312 574.03125 " fill-opacity="1" fill-rule="nonzero"/></g><path fill="#ffffff" d="M 295.707031 426.460938 L 252.523438 426.460938 C 249.050781 426.460938 246.21875 423.628906 246.21875 420.15625 L 246.21875 376.972656 C 246.21875 373.496094 249.050781 370.664062 252.523438 370.664062 L 295.707031 370.664062 C 299.183594 370.664062 302.015625 373.496094 302.015625 376.972656 L 302.015625 420.15625 C 301.949219 423.628906 299.183594 426.460938 295.707031 426.460938 Z M 295.707031 426.460938 " fill-opacity="1" fill-rule="nonzero"/><path fill="#ffffff" d="M 295.707031 515.015625 L 252.523438 515.015625 C 249.050781 515.015625 246.21875 512.183594 246.21875 508.707031 L 246.21875 465.527344 C 246.21875 462.050781 249.050781 459.21875 252.523438 459.21875 L 295.707031 459.21875 C 299.183594 459.21875 302.015625 462.050781 302.015625 465.527344 L 302.015625 508.707031 C 301.949219 512.25 299.183594 515.015625 295.707031 515.015625 Z M 295.707031 515.015625 " fill-opacity="1" fill-rule="nonzero"/><path fill="#ffffff" d="M 295.707031 603.632812 L 252.523438 603.632812 C 249.050781 603.632812 246.21875 600.800781 246.21875 597.328125 L 246.21875 554.144531 C 246.21875 550.667969 249.050781 547.835938 252.523438 547.835938 L 295.707031 547.835938 C 299.183594 547.835938 302.015625 550.667969 302.015625 554.144531 L 302.015625 597.390625 C 301.949219 600.800781 299.183594 603.632812 295.707031 603.632812 Z M 295.707031 603.632812 " fill-opacity="1" fill-rule="nonzero"/><path fill="#ffffff" d="M 384.261719 426.460938 L 341.078125 426.460938 C 337.605469 426.460938 334.773438 423.628906 334.773438 420.15625 L 334.773438 376.972656 C 334.773438 373.496094 337.605469 370.664062 341.078125 370.664062 L 384.261719 370.664062 C 387.738281 370.664062 390.570312 373.496094 390.570312 376.972656 L 390.570312 420.15625 C 390.570312 423.628906 387.738281 426.460938 384.261719 426.460938 Z M 384.261719 426.460938 " fill-opacity="1" fill-rule="nonzero"/><path fill="#ffffff" d="M 384.261719 515.015625 L 341.078125 515.015625 C 337.605469 515.015625 334.773438 512.183594 334.773438 508.707031 L 334.773438 465.527344 C 334.773438 462.050781 337.605469 459.21875 341.078125 459.21875 L 384.261719 459.21875 C 387.738281 459.21875 390.570312 462.050781 390.570312 465.527344 L 390.570312 508.707031 C 390.570312 512.25 387.738281 515.015625 384.261719 515.015625 Z M 384.261719 515.015625 " fill-opacity="1" fill-rule="nonzero"/><path fill="#ffffff" d="M 384.261719 603.632812 L 341.078125 603.632812 C 337.605469 603.632812 334.773438 600.800781 334.773438 597.328125 L 334.773438 554.144531 C 334.773438 550.667969 337.605469 547.835938 341.078125 547.835938 L 384.261719 547.835938 C 387.738281 547.835938 390.570312 550.667969 390.570312 554.144531 L 390.570312 597.390625 C 390.570312 600.800781 387.738281 603.632812 384.261719 603.632812 Z M 384.261719 603.632812 " fill-opacity="1" fill-rule="nonzero"/><path fill="#ffffff" d="M 472.878906 426.460938 L 429.695312 426.460938 C 426.222656 426.460938 423.390625 423.628906 423.390625 420.15625 L 423.390625 376.972656 C 423.390625 373.496094 426.222656 370.664062 429.695312 370.664062 L 472.878906 370.664062 C 476.355469 370.664062 479.1875 373.496094 479.1875 376.972656 L 479.1875 420.15625 C 479.121094 423.628906 476.355469 426.460938 472.878906 426.460938 Z M 472.878906 426.460938 " fill-opacity="1" fill-rule="nonzero"/><path fill="#ffffff" d="M 472.878906 515.015625 L 429.695312 515.015625 C 426.222656 515.015625 423.390625 512.183594 423.390625 508.707031 L 423.390625 465.527344 C 423.390625 462.050781 426.222656 459.21875 429.695312 459.21875 L 472.878906 459.21875 C 476.355469 459.21875 479.1875 462.050781 479.1875 465.527344 L 479.1875 508.707031 C 479.121094 512.25 476.355469 515.015625 472.878906 515.015625 Z M 472.878906 515.015625 " fill-opacity="1" fill-rule="nonzero"/><path fill="#ffffff" d="M 472.878906 603.632812 L 429.695312 603.632812 C 426.222656 603.632812 423.390625 600.800781 423.390625 597.328125 L 423.390625 554.144531 C 423.390625 550.667969 426.222656 547.835938 429.695312 547.835938 L 472.878906 547.835938 C 476.355469 547.835938 479.1875 550.667969 479.1875 554.144531 L 479.1875 597.390625 C 479.121094 600.800781 476.355469 603.632812 472.878906 603.632812 Z M 472.878906 603.632812 " fill-opacity="1" fill-rule="nonzero"/><path fill="#ffffff" d="M 561.5 426.460938 L 518.316406 426.460938 C 514.839844 426.460938 512.007812 423.628906 512.007812 420.15625 L 512.007812 376.972656 C 512.007812 373.496094 514.839844 370.664062 518.316406 370.664062 L 561.5 370.664062 C 564.972656 370.664062 567.804688 373.496094 567.804688 376.972656 L 567.804688 420.15625 C 567.742188 423.628906 564.910156 426.460938 561.5 426.460938 Z M 561.5 426.460938 " fill-opacity="1" fill-rule="nonzero"/><path fill="#ffffff" d="M 561.5 515.015625 L 518.316406 515.015625 C 514.839844 515.015625 512.007812 512.183594 512.007812 508.707031 L 512.007812 465.527344 C 512.007812 462.050781 514.839844 459.21875 518.316406 459.21875 L 561.5 459.21875 C 564.972656 459.21875 567.804688 462.050781 567.804688 465.527344 L 567.804688 508.707031 C 567.742188 512.25 564.910156 515.015625 561.5 515.015625 Z M 561.5 515.015625 " fill-opacity="1" fill-rule="nonzero"/></svg>