<svg xmlns="http://www.w3.org/2000/svg" xmlns:xlink="http://www.w3.org/1999/xlink" width="1080" zoomAndPan="magnify" viewBox="0 0 810 809.999993" height="1080" preserveAspectRatio="xMidYMid meet" version="1.0"><defs><clipPath id="759df691a9"><path d="M 126.5625 0 L 683.4375 0 C 753.335938 0 810 56.664062 810 126.5625 L 810 683.4375 C 810 753.335938 753.335938 810 683.4375 810 L 126.5625 810 C 56.664062 810 0 753.335938 0 683.4375 L 0 126.5625 C 0 56.664062 56.664062 0 126.5625 0 Z M 126.5625 0 " clip-rule="nonzero"/></clipPath><clipPath id="0dc3ceaea6"><path d="M 188.015625 115.691406 L 622 115.691406 L 622 693.941406 L 188.015625 693.941406 Z M 188.015625 115.691406 " clip-rule="nonzero"/></clipPath></defs><g clip-path="url(#759df691a9)"><rect x="-81" width="972" fill="#8a8a8a" y="-80.999999" height="971.999992" fill-opacity="1"/></g><path fill="#ffffff" d="M 513.484375 242.261719 L 611.378906 242.261719 L 495.402344 126.285156 L 495.402344 224.179688 C 495.402344 234.148438 503.507812 242.261719 513.484375 242.261719 Z M 513.484375 242.261719 " fill-opacity="1" fill-rule="nonzero"/><g clip-path="url(#0dc3ceaea6)"><path fill="#ffffff" d="M 513.484375 278.425781 C 483.574219 278.425781 459.242188 254.09375 459.242188 224.179688 L 459.242188 115.691406 L 242.261719 115.691406 C 212.351562 115.691406 188.015625 140.023438 188.015625 169.9375 L 188.015625 640.058594 C 188.015625 669.96875 212.351562 694.300781 242.261719 694.300781 L 567.730469 694.300781 C 597.640625 694.300781 621.972656 669.96875 621.972656 640.058594 L 621.972656 278.425781 Z M 495.402344 585.8125 L 314.589844 585.8125 C 304.59375 585.8125 296.507812 577.714844 296.507812 567.730469 C 296.507812 557.746094 304.59375 549.648438 314.589844 549.648438 L 495.402344 549.648438 C 505.398438 549.648438 513.484375 557.746094 513.484375 567.730469 C 513.484375 577.714844 505.398438 585.8125 495.402344 585.8125 Z M 296.507812 495.40625 C 296.507812 485.417969 304.59375 477.324219 314.589844 477.324219 L 441.160156 477.324219 C 451.152344 477.324219 459.242188 485.417969 459.242188 495.40625 C 459.242188 505.390625 451.152344 513.484375 441.160156 513.484375 L 314.589844 513.484375 C 304.59375 513.484375 296.507812 505.390625 296.507812 495.40625 Z M 495.402344 441.160156 L 314.589844 441.160156 C 304.59375 441.160156 296.507812 433.0625 296.507812 423.078125 C 296.507812 413.09375 304.59375 404.996094 314.589844 404.996094 L 495.402344 404.996094 C 505.398438 404.996094 513.484375 413.09375 513.484375 423.078125 C 513.484375 433.0625 505.398438 441.160156 495.402344 441.160156 Z M 495.402344 368.832031 L 314.589844 368.832031 C 304.59375 368.832031 296.507812 360.738281 296.507812 350.753906 C 296.507812 340.765625 304.59375 332.671875 314.589844 332.671875 L 495.402344 332.671875 C 505.398438 332.671875 513.484375 340.765625 513.484375 350.753906 C 513.484375 360.738281 505.398438 368.832031 495.402344 368.832031 Z M 495.402344 368.832031 " fill-opacity="1" fill-rule="nonzero"/></g></svg>