<svg xmlns="http://www.w3.org/2000/svg" xmlns:xlink="http://www.w3.org/1999/xlink" width="1080" zoomAndPan="magnify" viewBox="0 0 810 809.999993" height="1080" preserveAspectRatio="xMidYMid meet" version="1.0"><defs><clipPath id="cb75fff8be"><path d="M 126.5625 0 L 683.4375 0 C 753.335938 0 810 56.664062 810 126.5625 L 810 683.4375 C 810 753.335938 753.335938 810 683.4375 810 L 126.5625 810 C 56.664062 810 0 753.335938 0 683.4375 L 0 126.5625 C 0 56.664062 56.664062 0 126.5625 0 Z M 126.5625 0 " clip-rule="nonzero"/></clipPath><clipPath id="1bb5b57c70"><path d="M 116.703125 199.230469 L 693.453125 199.230469 L 693.453125 610.980469 L 116.703125 610.980469 Z M 116.703125 199.230469 " clip-rule="nonzero"/></clipPath></defs><g clip-path="url(#cb75fff8be)"><rect x="-81" width="972" fill="#8a8a8a" y="-80.999999" height="971.999992" fill-opacity="1"/></g><path fill="#ffffff" d="M 178.652344 219.804688 L 631.34375 219.804688 C 632.691406 219.804688 634.035156 219.871094 635.378906 220.003906 C 636.71875 220.136719 638.050781 220.335938 639.371094 220.597656 C 640.695312 220.859375 642 221.1875 643.289062 221.578125 C 644.582031 221.96875 645.847656 222.421875 647.09375 222.9375 C 648.339844 223.453125 649.554688 224.03125 650.742188 224.664062 C 651.933594 225.300781 653.085938 225.992188 654.207031 226.742188 C 655.328125 227.492188 656.410156 228.292969 657.453125 229.148438 C 658.492188 230.003906 659.492188 230.90625 660.445312 231.859375 C 661.398438 232.8125 662.300781 233.808594 663.15625 234.851562 C 664.011719 235.894531 664.8125 236.976562 665.5625 238.097656 C 666.3125 239.21875 667.003906 240.371094 667.636719 241.558594 C 668.273438 242.75 668.847656 243.964844 669.367188 245.210938 C 669.882812 246.457031 670.335938 247.722656 670.726562 249.015625 C 671.117188 250.304688 671.445312 251.609375 671.707031 252.929688 C 671.96875 254.253906 672.167969 255.585938 672.300781 256.925781 C 672.433594 258.269531 672.5 259.613281 672.496094 260.960938 L 672.496094 549.039062 C 672.5 550.386719 672.433594 551.730469 672.300781 553.070312 C 672.167969 554.414062 671.96875 555.746094 671.707031 557.066406 C 671.445312 558.386719 671.117188 559.695312 670.726562 560.984375 C 670.335938 562.273438 669.882812 563.542969 669.367188 564.785156 C 668.847656 566.03125 668.273438 567.25 667.636719 568.4375 C 667.003906 569.625 666.3125 570.78125 665.5625 571.902344 C 664.8125 573.023438 664.011719 574.101562 663.15625 575.144531 C 662.300781 576.1875 661.398438 577.183594 660.445312 578.136719 C 659.492188 579.089844 658.492188 579.996094 657.453125 580.851562 C 656.410156 581.703125 655.328125 582.507812 654.207031 583.253906 C 653.085938 584.003906 651.933594 584.695312 650.742188 585.332031 C 649.554688 585.96875 648.339844 586.542969 647.09375 587.058594 C 645.847656 587.574219 644.582031 588.027344 643.289062 588.417969 C 642 588.808594 640.695312 589.136719 639.371094 589.402344 C 638.050781 589.664062 636.71875 589.859375 635.378906 589.992188 C 634.035156 590.125 632.691406 590.191406 631.34375 590.191406 L 178.652344 590.191406 C 177.304688 590.191406 175.957031 590.125 174.617188 589.992188 C 173.277344 589.859375 171.945312 589.664062 170.621094 589.402344 C 169.300781 589.136719 167.996094 588.808594 166.703125 588.417969 C 165.414062 588.027344 164.148438 587.574219 162.902344 587.058594 C 161.65625 586.542969 160.441406 585.96875 159.25 585.332031 C 158.0625 584.695312 156.90625 584.003906 155.789062 583.253906 C 154.667969 582.507812 153.585938 581.703125 152.542969 580.851562 C 151.5 579.996094 150.503906 579.089844 149.550781 578.136719 C 148.597656 577.183594 147.695312 576.1875 146.839844 575.144531 C 145.984375 574.101562 145.183594 573.023438 144.433594 571.902344 C 143.683594 570.78125 142.992188 569.625 142.355469 568.4375 C 141.722656 567.25 141.144531 566.03125 140.628906 564.785156 C 140.113281 563.542969 139.660156 562.273438 139.269531 560.984375 C 138.878906 559.695312 138.550781 558.386719 138.289062 557.066406 C 138.023438 555.746094 137.828125 554.414062 137.695312 553.070312 C 137.5625 551.730469 137.496094 550.386719 137.496094 549.039062 L 137.496094 260.960938 C 137.496094 259.613281 137.5625 258.269531 137.695312 256.925781 C 137.828125 255.585938 138.023438 254.253906 138.289062 252.929688 C 138.550781 251.609375 138.878906 250.304688 139.269531 249.015625 C 139.660156 247.722656 140.113281 246.457031 140.628906 245.210938 C 141.144531 243.964844 141.722656 242.75 142.355469 241.558594 C 142.992188 240.371094 143.683594 239.21875 144.433594 238.097656 C 145.183594 236.976562 145.984375 235.894531 146.839844 234.851562 C 147.695312 233.808594 148.597656 232.8125 149.550781 231.859375 C 150.503906 230.90625 151.5 230.003906 152.542969 229.148438 C 153.585938 228.292969 154.667969 227.492188 155.789062 226.742188 C 156.90625 225.992188 158.0625 225.300781 159.25 224.664062 C 160.441406 224.03125 161.65625 223.453125 162.902344 222.9375 C 164.148438 222.421875 165.414062 221.96875 166.703125 221.578125 C 167.996094 221.1875 169.300781 220.859375 170.621094 220.597656 C 171.945312 220.335938 173.277344 220.136719 174.617188 220.003906 C 175.957031 219.871094 177.304688 219.804688 178.652344 219.804688 Z M 178.652344 219.804688 " fill-opacity="1" fill-rule="nonzero"/><path fill="#8a8a8a" d="M 359.585938 422.59375 C 360.554688 421.648438 361.5 420.675781 362.421875 419.683594 C 363.34375 418.691406 364.238281 417.679688 365.109375 416.640625 C 365.980469 415.605469 366.828125 414.546875 367.644531 413.46875 C 368.464844 412.390625 369.257812 411.292969 370.023438 410.175781 C 370.789062 409.058594 371.523438 407.925781 372.234375 406.769531 C 372.945312 405.617188 373.625 404.445312 374.273438 403.257812 C 374.925781 402.074219 375.546875 400.871094 376.140625 399.652344 C 376.730469 398.433594 377.292969 397.203125 377.824219 395.957031 C 378.355469 394.710938 378.855469 393.453125 379.324219 392.183594 C 379.792969 390.914062 380.230469 389.632812 380.636719 388.339844 C 381.042969 387.046875 381.417969 385.746094 381.757812 384.4375 C 382.101562 383.125 382.410156 381.808594 382.6875 380.480469 C 382.960938 379.15625 383.207031 377.824219 383.417969 376.488281 C 383.628906 375.148438 383.804688 373.808594 383.949219 372.460938 C 384.09375 371.113281 384.207031 369.765625 384.285156 368.414062 C 384.363281 367.0625 384.40625 365.707031 384.417969 364.355469 C 384.429688 363 384.40625 361.648438 384.351562 360.292969 C 384.296875 358.941406 384.207031 357.589844 384.085938 356.242188 C 383.960938 354.894531 383.808594 353.546875 383.617188 352.207031 C 383.429688 350.867188 383.207031 349.53125 382.953125 348.199219 C 382.699219 346.871094 382.410156 345.546875 382.09375 344.230469 C 381.773438 342.917969 381.421875 341.609375 381.035156 340.3125 C 380.652344 339.011719 380.234375 337.722656 379.789062 336.445312 C 379.339844 335.167969 378.859375 333.902344 378.351562 332.648438 C 377.839844 331.394531 377.296875 330.152344 376.726562 328.925781 C 376.15625 327.699219 375.554688 326.484375 374.921875 325.285156 C 374.289062 324.089844 373.628906 322.90625 372.941406 321.742188 C 372.25 320.578125 371.53125 319.429688 370.785156 318.300781 C 370.039062 317.167969 369.265625 316.058594 368.464844 314.96875 C 367.664062 313.875 366.835938 312.804688 365.980469 311.753906 C 365.125 310.703125 364.246094 309.675781 363.34375 308.667969 C 362.4375 307.660156 361.507812 306.675781 360.554688 305.714844 C 359.601562 304.75 358.625 303.8125 357.625 302.902344 C 356.625 301.988281 355.601562 301.101562 354.558594 300.238281 C 353.515625 299.375 352.449219 298.539062 351.367188 297.726562 C 350.28125 296.917969 349.175781 296.132812 348.054688 295.378906 C 346.929688 294.621094 345.789062 293.894531 344.628906 293.195312 C 343.46875 292.496094 342.292969 291.824219 341.101562 291.183594 C 339.90625 290.542969 338.699219 289.929688 337.476562 289.347656 C 336.253906 288.765625 335.019531 288.214844 333.769531 287.695312 C 332.519531 287.175781 331.257812 286.683594 329.980469 286.226562 C 328.707031 285.765625 327.421875 285.339844 326.128906 284.945312 C 324.832031 284.550781 323.527344 284.1875 322.214844 283.855469 C 320.902344 283.527344 319.582031 283.226562 318.253906 282.960938 C 316.925781 282.695312 315.59375 282.464844 314.253906 282.265625 C 312.914062 282.0625 311.570312 281.898438 310.222656 281.765625 C 308.875 281.632812 307.523438 281.53125 306.171875 281.464844 C 304.820312 281.398438 303.46875 281.363281 302.113281 281.363281 C 300.757812 281.363281 299.40625 281.398438 298.054688 281.464844 C 296.699219 281.53125 295.351562 281.632812 294.003906 281.765625 C 292.65625 281.898438 291.3125 282.0625 289.972656 282.265625 C 288.632812 282.464844 287.300781 282.695312 285.972656 282.960938 C 284.644531 283.226562 283.324219 283.527344 282.011719 283.855469 C 280.695312 284.1875 279.394531 284.550781 278.097656 284.945312 C 276.800781 285.339844 275.519531 285.765625 274.242188 286.226562 C 272.96875 286.683594 271.707031 287.175781 270.457031 287.695312 C 269.207031 288.214844 267.972656 288.765625 266.75 289.347656 C 265.527344 289.929688 264.316406 290.542969 263.125 291.183594 C 261.933594 291.824219 260.757812 292.496094 259.597656 293.195312 C 258.4375 293.894531 257.296875 294.621094 256.171875 295.378906 C 255.046875 296.132812 253.945312 296.917969 252.859375 297.726562 C 251.773438 298.539062 250.710938 299.375 249.667969 300.238281 C 248.621094 301.101562 247.601562 301.988281 246.601562 302.902344 C 245.601562 303.8125 244.625 304.75 243.671875 305.714844 C 242.71875 306.675781 241.789062 307.660156 240.882812 308.667969 C 239.980469 309.675781 239.097656 310.703125 238.246094 311.753906 C 237.390625 312.804688 236.5625 313.875 235.761719 314.96875 C 234.960938 316.058594 234.1875 317.167969 233.441406 318.300781 C 232.695312 319.429688 231.976562 320.578125 231.285156 321.742188 C 230.597656 322.90625 229.933594 324.089844 229.304688 325.285156 C 228.671875 326.484375 228.070312 327.699219 227.5 328.925781 C 226.925781 330.152344 226.386719 331.394531 225.875 332.648438 C 225.367188 333.902344 224.886719 335.167969 224.4375 336.445312 C 223.992188 337.722656 223.574219 339.011719 223.191406 340.3125 C 222.804688 341.609375 222.453125 342.917969 222.132812 344.230469 C 221.8125 345.546875 221.527344 346.871094 221.273438 348.199219 C 221.019531 349.53125 220.796875 350.867188 220.605469 352.207031 C 220.417969 353.546875 220.261719 354.894531 220.140625 356.242188 C 220.019531 357.589844 219.929688 358.941406 219.875 360.292969 C 219.820312 361.648438 219.796875 363 219.808594 364.355469 C 219.820312 365.707031 219.863281 367.0625 219.941406 368.414062 C 220.019531 369.765625 220.132812 371.113281 220.277344 372.460938 C 220.421875 373.808594 220.597656 375.148438 220.808594 376.488281 C 221.019531 377.824219 221.261719 379.15625 221.539062 380.480469 C 221.816406 381.808594 222.125 383.125 222.46875 384.4375 C 222.808594 385.746094 223.183594 387.046875 223.589844 388.339844 C 223.996094 389.632812 224.433594 390.914062 224.902344 392.183594 C 225.371094 393.453125 225.871094 394.710938 226.402344 395.957031 C 226.933594 397.203125 227.492188 398.433594 228.085938 399.652344 C 228.679688 400.871094 229.300781 402.074219 229.949219 403.257812 C 230.601562 404.445312 231.28125 405.617188 231.992188 406.769531 C 232.699219 407.925781 233.4375 409.058594 234.203125 410.175781 C 234.96875 411.292969 235.761719 412.390625 236.578125 413.46875 C 237.398438 414.546875 238.242188 415.605469 239.117188 416.640625 C 239.988281 417.679688 240.882812 418.691406 241.804688 419.683594 C 242.726562 420.675781 243.671875 421.648438 244.640625 422.59375 C 241.160156 424.9375 237.835938 427.484375 234.667969 430.234375 C 231.5 432.984375 228.507812 435.917969 225.699219 439.035156 C 222.890625 442.152344 220.28125 445.429688 217.871094 448.863281 C 215.460938 452.300781 213.269531 455.871094 211.300781 459.574219 C 209.328125 463.277344 207.585938 467.089844 206.082031 471.007812 C 204.574219 474.921875 203.3125 478.917969 202.296875 482.988281 C 201.28125 487.058594 200.515625 491.175781 200 495.34375 C 199.488281 499.507812 199.230469 503.6875 199.226562 507.882812 C 199.226562 508.558594 199.261719 509.230469 199.328125 509.902344 C 199.394531 510.570312 199.492188 511.238281 199.625 511.898438 C 199.753906 512.558594 199.917969 513.210938 200.113281 513.855469 C 200.308594 514.5 200.535156 515.136719 200.792969 515.757812 C 201.050781 516.378906 201.339844 516.988281 201.65625 517.582031 C 201.976562 518.179688 202.320312 518.753906 202.695312 519.316406 C 203.070312 519.875 203.472656 520.417969 203.898438 520.9375 C 204.328125 521.457031 204.777344 521.957031 205.253906 522.433594 C 205.730469 522.910156 206.230469 523.363281 206.75 523.789062 C 207.273438 524.21875 207.8125 524.617188 208.375 524.992188 C 208.933594 525.367188 209.511719 525.714844 210.105469 526.03125 C 210.699219 526.347656 211.308594 526.636719 211.929688 526.894531 C 212.554688 527.152344 213.1875 527.378906 213.832031 527.574219 C 214.476562 527.769531 215.128906 527.933594 215.789062 528.066406 C 216.453125 528.195312 217.117188 528.296875 217.789062 528.363281 C 218.457031 528.425781 219.132812 528.460938 219.804688 528.460938 C 220.480469 528.460938 221.152344 528.425781 221.820312 528.363281 C 222.492188 528.296875 223.160156 528.195312 223.820312 528.066406 C 224.480469 527.933594 225.132812 527.769531 225.777344 527.574219 C 226.421875 527.378906 227.058594 527.152344 227.679688 526.894531 C 228.300781 526.636719 228.910156 526.347656 229.503906 526.03125 C 230.097656 525.714844 230.675781 525.367188 231.238281 524.992188 C 231.796875 524.617188 232.339844 524.21875 232.859375 523.789062 C 233.378906 523.363281 233.878906 522.910156 234.355469 522.433594 C 234.832031 521.957031 235.285156 521.457031 235.710938 520.9375 C 236.140625 520.417969 236.539062 519.875 236.914062 519.316406 C 237.289062 518.753906 237.632812 518.179688 237.953125 517.582031 C 238.269531 516.988281 238.558594 516.378906 238.816406 515.757812 C 239.074219 515.136719 239.300781 514.5 239.496094 513.855469 C 239.691406 513.210938 239.855469 512.558594 239.988281 511.898438 C 240.117188 511.238281 240.21875 510.570312 240.28125 509.902344 C 240.347656 509.230469 240.382812 508.558594 240.382812 507.882812 C 240.382812 505.863281 240.480469 503.84375 240.679688 501.832031 C 240.878906 499.820312 241.171875 497.824219 241.566406 495.839844 C 241.960938 493.859375 242.453125 491.898438 243.039062 489.964844 C 243.628906 488.027344 244.308594 486.128906 245.082031 484.261719 C 245.855469 482.390625 246.71875 480.566406 247.671875 478.785156 C 248.625 477 249.664062 475.269531 250.785156 473.585938 C 251.910156 471.90625 253.113281 470.285156 254.394531 468.722656 C 255.675781 467.160156 257.03125 465.664062 258.460938 464.234375 C 259.890625 462.804688 261.386719 461.449219 262.953125 460.164062 C 264.515625 458.882812 266.136719 457.679688 267.816406 456.554688 C 269.5 455.433594 271.230469 454.394531 273.011719 453.441406 C 274.796875 452.488281 276.621094 451.625 278.488281 450.851562 C 280.355469 450.078125 282.257812 449.398438 284.191406 448.8125 C 286.128906 448.222656 288.085938 447.734375 290.070312 447.339844 C 292.050781 446.945312 294.050781 446.648438 296.0625 446.449219 C 298.074219 446.25 300.089844 446.152344 302.113281 446.152344 C 304.132812 446.152344 306.152344 446.25 308.164062 446.449219 C 310.175781 446.648438 312.171875 446.945312 314.15625 447.339844 C 316.140625 447.734375 318.097656 448.222656 320.03125 448.8125 C 321.96875 449.398438 323.867188 450.078125 325.734375 450.851562 C 327.605469 451.625 329.429688 452.488281 331.210938 453.441406 C 332.996094 454.394531 334.726562 455.433594 336.410156 456.554688 C 338.089844 457.679688 339.710938 458.882812 341.273438 460.164062 C 342.835938 461.449219 344.332031 462.804688 345.761719 464.234375 C 347.191406 465.664062 348.550781 467.160156 349.832031 468.722656 C 351.113281 470.285156 352.316406 471.90625 353.441406 473.585938 C 354.5625 475.269531 355.601562 477 356.554688 478.785156 C 357.507812 480.566406 358.371094 482.390625 359.144531 484.261719 C 359.917969 486.128906 360.597656 488.027344 361.1875 489.964844 C 361.773438 491.898438 362.261719 493.859375 362.65625 495.839844 C 363.050781 497.824219 363.347656 499.820312 363.546875 501.832031 C 363.746094 503.84375 363.84375 505.863281 363.84375 507.882812 C 363.84375 508.558594 363.875 509.230469 363.941406 509.902344 C 364.007812 510.570312 364.109375 511.238281 364.238281 511.898438 C 364.371094 512.558594 364.535156 513.210938 364.730469 513.855469 C 364.925781 514.5 365.152344 515.136719 365.410156 515.757812 C 365.667969 516.378906 365.957031 516.988281 366.273438 517.582031 C 366.589844 518.179688 366.9375 518.753906 367.3125 519.316406 C 367.6875 519.875 368.085938 520.417969 368.515625 520.9375 C 368.941406 521.457031 369.394531 521.957031 369.871094 522.433594 C 370.347656 522.910156 370.847656 523.363281 371.367188 523.789062 C 371.886719 524.21875 372.429688 524.617188 372.988281 524.992188 C 373.550781 525.367188 374.125 525.714844 374.722656 526.03125 C 375.316406 526.347656 375.921875 526.636719 376.546875 526.894531 C 377.167969 527.152344 377.800781 527.378906 378.449219 527.574219 C 379.09375 527.769531 379.746094 527.933594 380.40625 528.066406 C 381.066406 528.195312 381.734375 528.296875 382.402344 528.363281 C 383.074219 528.425781 383.746094 528.460938 384.421875 528.460938 C 385.09375 528.460938 385.765625 528.425781 386.4375 528.363281 C 387.109375 528.296875 387.773438 528.195312 388.433594 528.066406 C 389.097656 527.933594 389.75 527.769531 390.394531 527.574219 C 391.039062 527.378906 391.671875 527.152344 392.296875 526.894531 C 392.917969 526.636719 393.527344 526.347656 394.121094 526.03125 C 394.714844 525.714844 395.292969 525.367188 395.851562 524.992188 C 396.414062 524.617188 396.953125 524.21875 397.472656 523.789062 C 397.996094 523.363281 398.496094 522.910156 398.972656 522.433594 C 399.449219 521.957031 399.898438 521.457031 400.328125 520.9375 C 400.753906 520.417969 401.15625 519.875 401.53125 519.316406 C 401.902344 518.753906 402.25 518.179688 402.566406 517.582031 C 402.886719 516.988281 403.171875 516.378906 403.429688 515.757812 C 403.6875 515.136719 403.914062 514.5 404.113281 513.855469 C 404.308594 513.210938 404.472656 512.558594 404.601562 511.898438 C 404.734375 511.238281 404.832031 510.570312 404.898438 509.902344 C 404.964844 509.230469 404.996094 508.558594 404.996094 507.882812 C 404.996094 503.6875 404.738281 499.507812 404.226562 495.34375 C 403.710938 491.175781 402.945312 487.058594 401.929688 482.988281 C 400.910156 478.917969 399.648438 474.921875 398.144531 471.007812 C 396.636719 467.089844 394.898438 463.277344 392.925781 459.574219 C 390.953125 455.871094 388.765625 452.300781 386.355469 448.863281 C 383.945312 445.429688 381.335938 442.152344 378.527344 439.035156 C 375.714844 435.917969 372.726562 432.984375 369.558594 430.234375 C 366.390625 427.484375 363.066406 424.9375 359.585938 422.59375 Z M 302.113281 405 C 300.765625 405 299.421875 404.933594 298.078125 404.800781 C 296.738281 404.667969 295.40625 404.472656 294.085938 404.207031 C 292.761719 403.945312 291.457031 403.617188 290.167969 403.226562 C 288.875 402.835938 287.609375 402.382812 286.363281 401.867188 C 285.117188 401.351562 283.902344 400.773438 282.714844 400.140625 C 281.523438 399.503906 280.371094 398.8125 279.25 398.0625 C 278.128906 397.3125 277.046875 396.511719 276.003906 395.65625 C 274.964844 394.800781 273.964844 393.898438 273.011719 392.945312 C 272.058594 391.992188 271.15625 390.996094 270.300781 389.953125 C 269.445312 388.910156 268.644531 387.828125 267.894531 386.707031 C 267.144531 385.589844 266.453125 384.433594 265.820312 383.246094 C 265.183594 382.054688 264.609375 380.839844 264.089844 379.59375 C 263.574219 378.347656 263.121094 377.082031 262.730469 375.792969 C 262.339844 374.5 262.011719 373.195312 261.75 371.875 C 261.488281 370.550781 261.289062 369.21875 261.15625 367.878906 C 261.023438 366.539062 260.957031 365.191406 260.957031 363.84375 C 260.957031 362.496094 261.023438 361.152344 261.15625 359.8125 C 261.289062 358.46875 261.488281 357.136719 261.75 355.816406 C 262.011719 354.496094 262.339844 353.1875 262.730469 351.898438 C 263.121094 350.609375 263.574219 349.339844 264.089844 348.097656 C 264.609375 346.851562 265.183594 345.632812 265.820312 344.445312 C 266.453125 343.257812 267.144531 342.101562 267.894531 340.980469 C 268.644531 339.859375 269.445312 338.777344 270.300781 337.738281 C 271.15625 336.695312 272.058594 335.699219 273.011719 334.746094 C 273.964844 333.792969 274.964844 332.886719 276.003906 332.03125 C 277.046875 331.175781 278.128906 330.375 279.25 329.625 C 280.371094 328.878906 281.523438 328.1875 282.714844 327.550781 C 283.902344 326.914062 285.117188 326.339844 286.363281 325.824219 C 287.609375 325.308594 288.875 324.855469 290.167969 324.464844 C 291.457031 324.070312 292.761719 323.746094 294.085938 323.480469 C 295.40625 323.21875 296.738281 323.019531 298.078125 322.890625 C 299.421875 322.757812 300.765625 322.691406 302.113281 322.691406 C 303.460938 322.691406 304.804688 322.757812 306.148438 322.890625 C 307.488281 323.019531 308.820312 323.21875 310.140625 323.480469 C 311.464844 323.746094 312.769531 324.070312 314.058594 324.464844 C 315.347656 324.855469 316.617188 325.308594 317.863281 325.824219 C 319.105469 326.339844 320.324219 326.914062 321.511719 327.550781 C 322.703125 328.1875 323.855469 328.878906 324.976562 329.625 C 326.097656 330.375 327.179688 331.175781 328.21875 332.03125 C 329.261719 332.886719 330.261719 333.792969 331.214844 334.746094 C 332.167969 335.699219 333.070312 336.695312 333.925781 337.738281 C 334.78125 338.777344 335.582031 339.859375 336.332031 340.980469 C 337.078125 342.101562 337.773438 343.257812 338.40625 344.445312 C 339.042969 345.632812 339.617188 346.851562 340.132812 348.097656 C 340.648438 349.339844 341.101562 350.609375 341.496094 351.898438 C 341.886719 353.1875 342.214844 354.496094 342.476562 355.816406 C 342.738281 357.136719 342.9375 358.46875 343.070312 359.8125 C 343.199219 361.152344 343.265625 362.496094 343.265625 363.84375 C 343.265625 365.191406 343.199219 366.539062 343.070312 367.878906 C 342.9375 369.21875 342.738281 370.550781 342.476562 371.875 C 342.214844 373.195312 341.886719 374.5 341.496094 375.792969 C 341.101562 377.082031 340.648438 378.347656 340.132812 379.59375 C 339.617188 380.839844 339.042969 382.054688 338.40625 383.246094 C 337.773438 384.433594 337.078125 385.589844 336.332031 386.707031 C 335.582031 387.828125 334.78125 388.910156 333.925781 389.953125 C 333.070312 390.996094 332.167969 391.992188 331.214844 392.945312 C 330.261719 393.898438 329.261719 394.800781 328.21875 395.65625 C 327.179688 396.511719 326.097656 397.3125 324.976562 398.0625 C 323.855469 398.8125 322.703125 399.503906 321.511719 400.140625 C 320.324219 400.773438 319.105469 401.351562 317.863281 401.867188 C 316.617188 402.382812 315.347656 402.835938 314.058594 403.226562 C 312.769531 403.617188 311.464844 403.945312 310.140625 404.207031 C 308.820312 404.472656 307.488281 404.667969 306.148438 404.800781 C 304.804688 404.933594 303.460938 405 302.113281 405 Z M 302.113281 405 " fill-opacity="1" fill-rule="nonzero"/><g clip-path="url(#1bb5b57c70)"><path fill="#8a8a8a" d="M 631.34375 199.230469 L 178.652344 199.230469 C 176.628906 199.230469 174.613281 199.328125 172.601562 199.527344 C 170.589844 199.726562 168.589844 200.019531 166.609375 200.414062 C 164.625 200.808594 162.667969 201.300781 160.730469 201.886719 C 158.796875 202.472656 156.894531 203.15625 155.027344 203.929688 C 153.160156 204.703125 151.335938 205.566406 149.550781 206.519531 C 147.769531 207.472656 146.035156 208.507812 144.355469 209.632812 C 142.675781 210.757812 141.050781 211.957031 139.488281 213.242188 C 137.925781 214.523438 136.429688 215.878906 135 217.308594 C 133.570312 218.738281 132.214844 220.234375 130.933594 221.796875 C 129.648438 223.359375 128.445312 224.984375 127.324219 226.664062 C 126.199219 228.34375 125.164062 230.078125 124.210938 231.859375 C 123.257812 233.644531 122.394531 235.46875 121.621094 237.335938 C 120.84375 239.203125 120.164062 241.105469 119.578125 243.039062 C 118.992188 244.976562 118.5 246.933594 118.105469 248.917969 C 117.710938 250.898438 117.414062 252.898438 117.21875 254.910156 C 117.019531 256.921875 116.921875 258.9375 116.921875 260.960938 L 116.921875 549.039062 C 116.921875 551.058594 117.019531 553.074219 117.21875 555.089844 C 117.414062 557.101562 117.710938 559.097656 118.105469 561.082031 C 118.5 563.0625 118.992188 565.023438 119.578125 566.957031 C 120.164062 568.890625 120.84375 570.792969 121.621094 572.660156 C 122.394531 574.527344 123.257812 576.355469 124.210938 578.136719 C 125.164062 579.921875 126.199219 581.652344 127.324219 583.332031 C 128.445312 585.015625 129.648438 586.636719 130.933594 588.199219 C 132.214844 589.761719 133.570312 591.257812 135 592.6875 C 136.429688 594.117188 137.925781 595.472656 139.488281 596.757812 C 141.050781 598.039062 142.675781 599.242188 144.355469 600.363281 C 146.035156 601.488281 147.769531 602.527344 149.550781 603.480469 C 151.335938 604.433594 153.160156 605.296875 155.027344 606.070312 C 156.894531 606.84375 158.796875 607.523438 160.730469 608.109375 C 162.667969 608.695312 164.625 609.1875 166.609375 609.582031 C 168.589844 609.976562 170.589844 610.273438 172.601562 610.472656 C 174.613281 610.667969 176.628906 610.769531 178.652344 610.769531 L 631.34375 610.769531 C 633.367188 610.769531 635.382812 610.667969 637.394531 610.472656 C 639.40625 610.273438 641.402344 609.976562 643.386719 609.582031 C 645.371094 609.1875 647.328125 608.695312 649.261719 608.109375 C 651.199219 607.523438 653.097656 606.84375 654.96875 606.070312 C 656.835938 605.296875 658.660156 604.433594 660.445312 603.480469 C 662.226562 602.527344 663.957031 601.488281 665.640625 600.363281 C 667.320312 599.242188 668.941406 598.039062 670.503906 596.757812 C 672.070312 595.472656 673.566406 594.117188 674.996094 592.6875 C 676.425781 591.257812 677.78125 589.761719 679.0625 588.199219 C 680.34375 586.636719 681.546875 585.015625 682.671875 583.332031 C 683.792969 581.652344 684.832031 579.921875 685.785156 578.136719 C 686.738281 576.355469 687.601562 574.527344 688.375 572.660156 C 689.148438 570.792969 689.828125 568.890625 690.417969 566.957031 C 691.003906 565.023438 691.496094 563.0625 691.890625 561.082031 C 692.28125 559.097656 692.578125 557.101562 692.777344 555.089844 C 692.976562 553.074219 693.074219 551.058594 693.074219 549.039062 L 693.074219 260.960938 C 693.074219 258.9375 692.976562 256.921875 692.777344 254.910156 C 692.578125 252.898438 692.28125 250.898438 691.890625 248.917969 C 691.496094 246.933594 691.003906 244.976562 690.417969 243.039062 C 689.828125 241.105469 689.148438 239.203125 688.375 237.335938 C 687.601562 235.46875 686.738281 233.644531 685.785156 231.859375 C 684.832031 230.078125 683.792969 228.34375 682.671875 226.664062 C 681.546875 224.984375 680.34375 223.359375 679.0625 221.796875 C 677.78125 220.234375 676.425781 218.738281 674.996094 217.308594 C 673.566406 215.878906 672.070312 214.523438 670.503906 213.242188 C 668.941406 211.957031 667.320312 210.757812 665.640625 209.632812 C 663.957031 208.507812 662.226562 207.472656 660.445312 206.519531 C 658.660156 205.566406 656.835938 204.703125 654.96875 203.929688 C 653.097656 203.15625 651.199219 202.472656 649.261719 201.886719 C 647.328125 201.300781 645.371094 200.808594 643.386719 200.414062 C 641.402344 200.019531 639.40625 199.726562 637.394531 199.527344 C 635.382812 199.328125 633.367188 199.230469 631.34375 199.230469 Z M 651.921875 549.039062 C 651.921875 549.710938 651.886719 550.382812 651.820312 551.054688 C 651.757812 551.726562 651.65625 552.390625 651.527344 553.050781 C 651.394531 553.710938 651.230469 554.367188 651.035156 555.011719 C 650.839844 555.65625 650.613281 556.289062 650.355469 556.910156 C 650.097656 557.535156 649.808594 558.144531 649.492188 558.738281 C 649.171875 559.332031 648.828125 559.910156 648.453125 560.46875 C 648.078125 561.03125 647.679688 561.570312 647.25 562.089844 C 646.824219 562.613281 646.371094 563.109375 645.894531 563.585938 C 645.417969 564.0625 644.917969 564.515625 644.398438 564.945312 C 643.878906 565.371094 643.335938 565.773438 642.777344 566.144531 C 642.214844 566.519531 641.636719 566.867188 641.042969 567.183594 C 640.449219 567.503906 639.839844 567.789062 639.21875 568.046875 C 638.597656 568.304688 637.960938 568.53125 637.316406 568.726562 C 636.671875 568.925781 636.019531 569.085938 635.359375 569.21875 C 634.699219 569.351562 634.03125 569.449219 633.359375 569.515625 C 632.691406 569.582031 632.019531 569.613281 631.34375 569.613281 L 178.652344 569.613281 C 177.976562 569.613281 177.304688 569.582031 176.632812 569.515625 C 175.964844 569.449219 175.296875 569.351562 174.636719 569.21875 C 173.976562 569.085938 173.324219 568.925781 172.679688 568.726562 C 172.03125 568.53125 171.398438 568.304688 170.777344 568.046875 C 170.152344 567.789062 169.546875 567.503906 168.953125 567.183594 C 168.355469 566.867188 167.78125 566.519531 167.21875 566.148438 C 166.660156 565.773438 166.117188 565.371094 165.597656 564.945312 C 165.078125 564.515625 164.578125 564.0625 164.101562 563.585938 C 163.625 563.109375 163.171875 562.613281 162.746094 562.089844 C 162.316406 561.570312 161.917969 561.03125 161.542969 560.46875 C 161.167969 559.910156 160.820312 559.332031 160.503906 558.738281 C 160.1875 558.144531 159.898438 557.535156 159.640625 556.910156 C 159.382812 556.289062 159.15625 555.65625 158.960938 555.011719 C 158.765625 554.367188 158.601562 553.710938 158.46875 553.050781 C 158.339844 552.390625 158.238281 551.726562 158.171875 551.054688 C 158.105469 550.382812 158.074219 549.710938 158.074219 549.039062 L 158.074219 260.960938 C 158.074219 260.285156 158.105469 259.613281 158.171875 258.941406 C 158.238281 258.273438 158.339844 257.605469 158.46875 256.945312 C 158.601562 256.285156 158.765625 255.632812 158.960938 254.988281 C 159.15625 254.34375 159.382812 253.707031 159.640625 253.085938 C 159.898438 252.464844 160.1875 251.855469 160.503906 251.261719 C 160.820312 250.664062 161.167969 250.089844 161.542969 249.527344 C 161.917969 248.96875 162.316406 248.425781 162.746094 247.90625 C 163.171875 247.386719 163.625 246.886719 164.101562 246.410156 C 164.578125 245.933594 165.078125 245.480469 165.597656 245.054688 C 166.117188 244.625 166.660156 244.226562 167.21875 243.851562 C 167.78125 243.476562 168.355469 243.128906 168.953125 242.8125 C 169.546875 242.496094 170.152344 242.207031 170.777344 241.949219 C 171.398438 241.691406 172.03125 241.464844 172.679688 241.269531 C 173.324219 241.074219 173.976562 240.910156 174.636719 240.777344 C 175.296875 240.648438 175.964844 240.546875 176.632812 240.480469 C 177.304688 240.417969 177.976562 240.382812 178.652344 240.382812 L 631.34375 240.382812 C 632.019531 240.382812 632.691406 240.417969 633.359375 240.480469 C 634.03125 240.546875 634.699219 240.648438 635.359375 240.777344 C 636.019531 240.910156 636.671875 241.074219 637.316406 241.269531 C 637.960938 241.464844 638.597656 241.691406 639.21875 241.949219 C 639.839844 242.207031 640.449219 242.496094 641.042969 242.8125 C 641.636719 243.128906 642.214844 243.476562 642.777344 243.851562 C 643.335938 244.226562 643.878906 244.625 644.398438 245.054688 C 644.917969 245.480469 645.417969 245.933594 645.894531 246.410156 C 646.371094 246.886719 646.824219 247.386719 647.25 247.90625 C 647.679688 248.425781 648.078125 248.96875 648.453125 249.527344 C 648.828125 250.089844 649.171875 250.664062 649.492188 251.261719 C 649.808594 251.855469 650.097656 252.464844 650.355469 253.085938 C 650.613281 253.707031 650.839844 254.34375 651.035156 254.988281 C 651.230469 255.632812 651.394531 256.285156 651.527344 256.945312 C 651.65625 257.605469 651.757812 258.273438 651.820312 258.941406 C 651.886719 259.613281 651.921875 260.285156 651.921875 260.960938 Z M 651.921875 549.039062 " fill-opacity="1" fill-rule="nonzero"/></g><path fill="#8a8a8a" d="M 590.191406 302.113281 L 466.726562 302.113281 C 466.054688 302.113281 465.382812 302.148438 464.710938 302.214844 C 464.039062 302.277344 463.375 302.378906 462.714844 302.507812 C 462.054688 302.640625 461.398438 302.804688 460.753906 303 C 460.109375 303.195312 459.476562 303.421875 458.855469 303.679688 C 458.230469 303.9375 457.621094 304.226562 457.027344 304.542969 C 456.433594 304.863281 455.855469 305.207031 455.296875 305.582031 C 454.734375 305.957031 454.195312 306.355469 453.675781 306.785156 C 453.152344 307.210938 452.65625 307.664062 452.179688 308.140625 C 451.703125 308.617188 451.25 309.117188 450.820312 309.636719 C 450.394531 310.15625 449.992188 310.699219 449.621094 311.257812 C 449.246094 311.820312 448.898438 312.398438 448.582031 312.992188 C 448.261719 313.585938 447.976562 314.195312 447.71875 314.816406 C 447.460938 315.4375 447.234375 316.074219 447.039062 316.71875 C 446.84375 317.363281 446.679688 318.015625 446.546875 318.675781 C 446.414062 319.335938 446.316406 320.003906 446.25 320.675781 C 446.183594 321.34375 446.152344 322.015625 446.152344 322.691406 C 446.152344 323.363281 446.183594 324.039062 446.25 324.707031 C 446.316406 325.378906 446.414062 326.042969 446.546875 326.707031 C 446.679688 327.367188 446.84375 328.019531 447.039062 328.664062 C 447.234375 329.308594 447.460938 329.941406 447.71875 330.566406 C 447.976562 331.1875 448.261719 331.796875 448.582031 332.390625 C 448.898438 332.984375 449.246094 333.5625 449.621094 334.121094 C 449.992188 334.683594 450.394531 335.222656 450.824219 335.746094 C 451.25 336.265625 451.703125 336.765625 452.179688 337.242188 C 452.65625 337.71875 453.152344 338.167969 453.675781 338.597656 C 454.195312 339.023438 454.734375 339.425781 455.296875 339.800781 C 455.855469 340.175781 456.433594 340.519531 457.027344 340.839844 C 457.621094 341.15625 458.230469 341.445312 458.855469 341.703125 C 459.476562 341.960938 460.109375 342.1875 460.753906 342.382812 C 461.398438 342.578125 462.054688 342.742188 462.714844 342.871094 C 463.375 343.003906 464.039062 343.101562 464.710938 343.167969 C 465.382812 343.234375 466.054688 343.269531 466.726562 343.269531 L 590.191406 343.269531 C 590.863281 343.269531 591.535156 343.234375 592.207031 343.167969 C 592.878906 343.101562 593.542969 343.003906 594.203125 342.871094 C 594.867188 342.742188 595.519531 342.578125 596.164062 342.382812 C 596.808594 342.1875 597.441406 341.960938 598.066406 341.703125 C 598.6875 341.445312 599.296875 341.15625 599.890625 340.839844 C 600.484375 340.519531 601.0625 340.175781 601.621094 339.800781 C 602.183594 339.425781 602.722656 339.023438 603.242188 338.597656 C 603.765625 338.167969 604.265625 337.71875 604.742188 337.242188 C 605.21875 336.765625 605.667969 336.265625 606.097656 335.746094 C 606.523438 335.222656 606.925781 334.683594 607.300781 334.121094 C 607.671875 333.5625 608.019531 332.984375 608.335938 332.390625 C 608.65625 331.796875 608.941406 331.1875 609.199219 330.566406 C 609.457031 329.941406 609.683594 329.308594 609.882812 328.664062 C 610.078125 328.019531 610.242188 327.367188 610.371094 326.707031 C 610.503906 326.042969 610.601562 325.378906 610.667969 324.707031 C 610.734375 324.039062 610.765625 323.363281 610.765625 322.691406 C 610.765625 322.015625 610.734375 321.34375 610.667969 320.675781 C 610.601562 320.003906 610.503906 319.335938 610.371094 318.675781 C 610.242188 318.015625 610.078125 317.363281 609.882812 316.71875 C 609.683594 316.074219 609.457031 315.4375 609.199219 314.816406 C 608.941406 314.195312 608.65625 313.585938 608.335938 312.992188 C 608.019531 312.398438 607.671875 311.820312 607.300781 311.257812 C 606.925781 310.699219 606.523438 310.15625 606.097656 309.636719 C 605.667969 309.117188 605.21875 308.617188 604.742188 308.140625 C 604.265625 307.664062 603.765625 307.210938 603.242188 306.785156 C 602.722656 306.355469 602.183594 305.957031 601.621094 305.582031 C 601.0625 305.207031 600.484375 304.863281 599.890625 304.542969 C 599.296875 304.226562 598.6875 303.9375 598.066406 303.679688 C 597.441406 303.421875 596.808594 303.195312 596.164062 303 C 595.519531 302.804688 594.867188 302.640625 594.203125 302.507812 C 593.542969 302.378906 592.878906 302.277344 592.207031 302.214844 C 591.535156 302.148438 590.863281 302.113281 590.191406 302.113281 Z M 590.191406 302.113281 " fill-opacity="1" fill-rule="nonzero"/><path fill="#8a8a8a" d="M 590.191406 384.421875 L 466.726562 384.421875 C 466.054688 384.421875 465.382812 384.453125 464.710938 384.519531 C 464.039062 384.585938 463.375 384.6875 462.714844 384.816406 C 462.054688 384.949219 461.398438 385.113281 460.753906 385.308594 C 460.109375 385.503906 459.476562 385.730469 458.855469 385.988281 C 458.230469 386.246094 457.621094 386.535156 457.027344 386.851562 C 456.433594 387.167969 455.855469 387.515625 455.296875 387.890625 C 454.734375 388.265625 454.195312 388.664062 453.675781 389.09375 C 453.152344 389.519531 452.65625 389.972656 452.179688 390.449219 C 451.703125 390.925781 451.25 391.425781 450.820312 391.945312 C 450.394531 392.464844 449.992188 393.007812 449.621094 393.566406 C 449.246094 394.128906 448.898438 394.703125 448.582031 395.300781 C 448.261719 395.894531 447.976562 396.5 447.71875 397.125 C 447.460938 397.746094 447.234375 398.378906 447.039062 399.027344 C 446.84375 399.671875 446.679688 400.324219 446.546875 400.984375 C 446.414062 401.644531 446.316406 402.3125 446.25 402.980469 C 446.183594 403.652344 446.152344 404.324219 446.152344 405 C 446.152344 405.671875 446.183594 406.34375 446.25 407.015625 C 446.316406 407.6875 446.414062 408.351562 446.546875 409.011719 C 446.679688 409.675781 446.84375 410.328125 447.039062 410.972656 C 447.234375 411.617188 447.460938 412.25 447.71875 412.875 C 447.976562 413.496094 448.261719 414.105469 448.582031 414.699219 C 448.898438 415.292969 449.246094 415.871094 449.621094 416.429688 C 449.992188 416.992188 450.394531 417.53125 450.824219 418.050781 C 451.25 418.574219 451.703125 419.074219 452.179688 419.550781 C 452.65625 420.027344 453.152344 420.476562 453.675781 420.90625 C 454.195312 421.332031 454.734375 421.734375 455.296875 422.109375 C 455.855469 422.480469 456.433594 422.828125 457.027344 423.144531 C 457.621094 423.464844 458.230469 423.75 458.855469 424.007812 C 459.476562 424.265625 460.109375 424.492188 460.753906 424.691406 C 461.398438 424.886719 462.054688 425.046875 462.714844 425.179688 C 463.375 425.3125 464.039062 425.410156 464.710938 425.476562 C 465.382812 425.542969 466.054688 425.574219 466.726562 425.574219 L 590.191406 425.574219 C 590.863281 425.574219 591.535156 425.542969 592.207031 425.476562 C 592.878906 425.410156 593.542969 425.3125 594.203125 425.179688 C 594.867188 425.050781 595.519531 424.886719 596.164062 424.691406 C 596.808594 424.492188 597.441406 424.265625 598.066406 424.007812 C 598.6875 423.75 599.296875 423.464844 599.890625 423.144531 C 600.484375 422.828125 601.0625 422.480469 601.621094 422.109375 C 602.183594 421.734375 602.722656 421.332031 603.242188 420.90625 C 603.765625 420.476562 604.265625 420.027344 604.742188 419.550781 C 605.21875 419.074219 605.667969 418.574219 606.097656 418.050781 C 606.523438 417.53125 606.925781 416.992188 607.300781 416.429688 C 607.671875 415.871094 608.019531 415.292969 608.335938 414.699219 C 608.65625 414.105469 608.941406 413.496094 609.199219 412.875 C 609.457031 412.25 609.683594 411.617188 609.882812 410.972656 C 610.078125 410.328125 610.242188 409.675781 610.371094 409.011719 C 610.503906 408.351562 610.601562 407.6875 610.667969 407.015625 C 610.734375 406.34375 610.765625 405.671875 610.765625 405 C 610.765625 404.324219 610.734375 403.652344 610.667969 402.980469 C 610.601562 402.3125 610.503906 401.644531 610.371094 400.984375 C 610.242188 400.324219 610.078125 399.671875 609.882812 399.027344 C 609.683594 398.378906 609.457031 397.746094 609.199219 397.125 C 608.941406 396.5 608.65625 395.894531 608.335938 395.300781 C 608.019531 394.703125 607.671875 394.128906 607.300781 393.566406 C 606.925781 393.007812 606.523438 392.464844 606.097656 391.945312 C 605.667969 391.425781 605.21875 390.925781 604.742188 390.449219 C 604.265625 389.972656 603.765625 389.519531 603.242188 389.09375 C 602.722656 388.664062 602.183594 388.265625 601.621094 387.890625 C 601.0625 387.515625 600.484375 387.167969 599.890625 386.851562 C 599.296875 386.535156 598.6875 386.246094 598.066406 385.988281 C 597.441406 385.730469 596.808594 385.503906 596.164062 385.308594 C 595.519531 385.113281 594.867188 384.949219 594.203125 384.816406 C 593.542969 384.6875 592.878906 384.585938 592.207031 384.519531 C 591.535156 384.453125 590.863281 384.421875 590.191406 384.421875 Z M 590.191406 384.421875 " fill-opacity="1" fill-rule="nonzero"/><path fill="#8a8a8a" d="M 590.191406 466.730469 L 466.726562 466.730469 C 466.054688 466.730469 465.382812 466.761719 464.710938 466.828125 C 464.039062 466.894531 463.375 466.992188 462.714844 467.125 C 462.054688 467.257812 461.398438 467.421875 460.753906 467.617188 C 460.109375 467.8125 459.476562 468.039062 458.855469 468.296875 C 458.230469 468.554688 457.621094 468.839844 457.027344 469.160156 C 456.433594 469.476562 455.855469 469.824219 455.296875 470.199219 C 454.734375 470.570312 454.195312 470.972656 453.675781 471.398438 C 453.152344 471.828125 452.65625 472.28125 452.179688 472.757812 C 451.703125 473.234375 451.25 473.730469 450.820312 474.253906 C 450.394531 474.773438 449.992188 475.3125 449.621094 475.875 C 449.246094 476.433594 448.898438 477.011719 448.582031 477.605469 C 448.261719 478.199219 447.976562 478.808594 447.71875 479.433594 C 447.460938 480.054688 447.234375 480.6875 447.039062 481.332031 C 446.84375 481.976562 446.679688 482.632812 446.546875 483.292969 C 446.414062 483.953125 446.316406 484.617188 446.25 485.289062 C 446.183594 485.960938 446.152344 486.632812 446.152344 487.304688 C 446.152344 487.980469 446.183594 488.652344 446.25 489.324219 C 446.316406 489.996094 446.414062 490.660156 446.546875 491.320312 C 446.679688 491.980469 446.84375 492.636719 447.039062 493.28125 C 447.234375 493.925781 447.460938 494.558594 447.71875 495.179688 C 447.976562 495.804688 448.261719 496.414062 448.582031 497.007812 C 448.898438 497.601562 449.246094 498.179688 449.621094 498.738281 C 449.992188 499.300781 450.394531 499.839844 450.824219 500.359375 C 451.25 500.882812 451.703125 501.378906 452.179688 501.855469 C 452.65625 502.332031 453.152344 502.785156 453.675781 503.210938 C 454.195312 503.640625 454.734375 504.042969 455.296875 504.414062 C 455.855469 504.789062 456.433594 505.136719 457.027344 505.453125 C 457.621094 505.769531 458.230469 506.058594 458.855469 506.316406 C 459.476562 506.574219 460.109375 506.800781 460.753906 506.996094 C 461.398438 507.191406 462.054688 507.355469 462.714844 507.488281 C 463.375 507.621094 464.039062 507.71875 464.710938 507.785156 C 465.382812 507.851562 466.054688 507.882812 466.726562 507.882812 L 590.191406 507.882812 C 590.863281 507.882812 591.535156 507.851562 592.207031 507.785156 C 592.878906 507.71875 593.542969 507.621094 594.203125 507.488281 C 594.867188 507.355469 595.519531 507.191406 596.164062 506.996094 C 596.808594 506.800781 597.441406 506.574219 598.066406 506.316406 C 598.6875 506.058594 599.296875 505.769531 599.890625 505.453125 C 600.484375 505.136719 601.0625 504.789062 601.621094 504.414062 C 602.183594 504.042969 602.722656 503.640625 603.242188 503.210938 C 603.765625 502.785156 604.265625 502.332031 604.742188 501.855469 C 605.21875 501.378906 605.667969 500.882812 606.097656 500.359375 C 606.523438 499.839844 606.925781 499.300781 607.300781 498.738281 C 607.671875 498.179688 608.019531 497.601562 608.335938 497.007812 C 608.65625 496.414062 608.941406 495.804688 609.199219 495.179688 C 609.457031 494.558594 609.683594 493.925781 609.882812 493.28125 C 610.078125 492.636719 610.242188 491.980469 610.371094 491.320312 C 610.503906 490.660156 610.601562 489.996094 610.667969 489.324219 C 610.734375 488.652344 610.765625 487.980469 610.765625 487.304688 C 610.765625 486.632812 610.734375 485.960938 610.667969 485.289062 C 610.601562 484.617188 610.503906 483.953125 610.371094 483.292969 C 610.242188 482.632812 610.078125 481.976562 609.882812 481.332031 C 609.683594 480.6875 609.457031 480.054688 609.199219 479.433594 C 608.941406 478.808594 608.65625 478.199219 608.335938 477.605469 C 608.019531 477.011719 607.671875 476.433594 607.300781 475.875 C 606.925781 475.3125 606.523438 474.773438 606.097656 474.253906 C 605.667969 473.730469 605.21875 473.234375 604.742188 472.757812 C 604.265625 472.28125 603.765625 471.828125 603.242188 471.398438 C 602.722656 470.972656 602.183594 470.570312 601.621094 470.199219 C 601.0625 469.824219 600.484375 469.476562 599.890625 469.160156 C 599.296875 468.839844 598.6875 468.554688 598.066406 468.296875 C 597.441406 468.039062 596.808594 467.8125 596.164062 467.617188 C 595.519531 467.421875 594.867188 467.257812 594.203125 467.125 C 593.542969 466.992188 592.878906 466.894531 592.207031 466.828125 C 591.535156 466.761719 590.863281 466.730469 590.191406 466.730469 Z M 590.191406 466.730469 " fill-opacity="1" fill-rule="nonzero"/></svg>