<svg xmlns="http://www.w3.org/2000/svg" xmlns:xlink="http://www.w3.org/1999/xlink" width="1080" zoomAndPan="magnify" viewBox="0 0 810 809.999993" height="1080" preserveAspectRatio="xMidYMid meet" version="1.0"><defs><clipPath id="f6a8523f6f"><path d="M 126.5625 0 L 683.4375 0 C 753.335938 0 810 56.664062 810 126.5625 L 810 683.4375 C 810 753.335938 753.335938 810 683.4375 810 L 126.5625 810 C 56.664062 810 0 753.335938 0 683.4375 L 0 126.5625 C 0 56.664062 56.664062 0 126.5625 0 Z M 126.5625 0 " clip-rule="nonzero"/></clipPath><clipPath id="486c3b1980"><path d="M 179 238.210938 L 630 238.210938 L 630 433 L 179 433 Z M 179 238.210938 " clip-rule="nonzero"/></clipPath><clipPath id="02f8972c49"><path d="M 163.714844 275 L 645.964844 275 L 645.964844 571.960938 L 163.714844 571.960938 Z M 163.714844 275 " clip-rule="nonzero"/></clipPath></defs><g clip-path="url(#f6a8523f6f)"><rect x="-81" width="972" fill="#8a8a8a" y="-80.999999" height="971.999992" fill-opacity="1"/></g><g clip-path="url(#486c3b1980)"><path fill="#ffffff" d="M 405.101562 432.3125 C 425.207031 430.839844 533.621094 341.617188 629.832031 253.71875 C 620.0625 244.222656 606.75 238.351562 592.046875 238.351562 L 217.992188 238.351562 C 202.875 238.351562 189.214844 244.539062 179.367188 254.507812 C 275.847656 341.945312 384.8125 430.890625 405.101562 432.3125 " fill-opacity="1" fill-rule="nonzero"/></g><g clip-path="url(#02f8972c49)"><path fill="#ffffff" d="M 546.996094 359.726562 C 431.738281 457.28125 413.007812 457.28125 405.011719 457.28125 C 397.027344 457.28125 378.320312 457.28125 263.035156 360.527344 C 222.726562 326.699219 184.375 292.5625 166.226562 276.25 C 164.582031 281.425781 163.6875 286.933594 163.6875 292.652344 L 163.6875 517.507812 C 163.6875 547.472656 187.984375 571.765625 217.949219 571.765625 L 592.003906 571.765625 C 621.992188 571.765625 646.304688 547.457031 646.304688 517.464844 L 646.304688 292.609375 C 646.304688 286.480469 645.242188 280.613281 643.367188 275.117188 C 625.066406 291.707031 586.992188 325.871094 546.996094 359.726562 " fill-opacity="1" fill-rule="nonzero"/></g></svg>