<svg xmlns="http://www.w3.org/2000/svg" xmlns:xlink="http://www.w3.org/1999/xlink" width="1080" zoomAndPan="magnify" viewBox="0 0 810 809.999993" height="1080" preserveAspectRatio="xMidYMid meet" version="1.0"><defs><clipPath id="182c9309d0"><path d="M 126.5625 0 L 683.4375 0 C 753.335938 0 810 56.664062 810 126.5625 L 810 683.4375 C 810 753.335938 753.335938 810 683.4375 810 L 126.5625 810 C 56.664062 810 0 753.335938 0 683.4375 L 0 126.5625 C 0 56.664062 56.664062 0 126.5625 0 Z M 126.5625 0 " clip-rule="nonzero"/></clipPath><clipPath id="b241b8e331"><path d="M 135 159.886719 L 675 159.886719 L 675 650 L 135 650 Z M 135 159.886719 " clip-rule="nonzero"/></clipPath></defs><g clip-path="url(#182c9309d0)"><rect x="-81" width="972" fill="#8a8a8a" y="-80.999999" height="971.999992" fill-opacity="1"/></g><g clip-path="url(#b241b8e331)"><path fill="#ffffff" d="M 652.617188 617.929688 L 652.617188 188.710938 C 652.617188 172.453125 639.394531 159.246094 623.136719 159.246094 L 341.339844 159.246094 C 325.046875 159.246094 311.890625 172.453125 311.890625 188.710938 L 311.890625 225.6875 L 457.085938 225.6875 C 474.167969 225.6875 488.015625 239.535156 488.015625 256.632812 L 488.015625 617.929688 L 474.589844 617.929688 L 474.589844 266.925781 C 474.589844 250.871094 461.566406 237.832031 445.496094 237.832031 L 196.648438 237.832031 C 180.558594 237.832031 167.554688 250.855469 167.554688 266.925781 L 167.554688 617.929688 L 135.460938 617.929688 L 135.460938 649.0625 L 674.535156 649.0625 L 674.535156 617.929688 Z M 288.527344 302.589844 C 288.527344 297.199219 292.9375 292.769531 298.363281 292.769531 L 343.796875 292.769531 C 349.253906 292.769531 353.667969 297.199219 353.667969 302.589844 L 353.667969 348.058594 C 353.667969 353.480469 349.253906 357.894531 343.796875 357.894531 L 298.363281 357.894531 C 292.9375 357.894531 288.527344 353.480469 288.527344 348.058594 Z M 288.527344 386.734375 C 288.527344 381.328125 292.9375 376.914062 298.363281 376.914062 L 343.796875 376.914062 C 349.253906 376.914062 353.667969 381.328125 353.667969 386.734375 L 353.667969 432.1875 C 353.667969 437.609375 349.253906 442.023438 343.796875 442.023438 L 298.363281 442.023438 C 292.9375 442.023438 288.527344 437.609375 288.527344 432.1875 Z M 288.527344 470.882812 C 288.527344 465.457031 292.9375 461.042969 298.363281 461.042969 L 343.796875 461.042969 C 349.253906 461.042969 353.667969 465.457031 353.667969 470.882812 L 353.667969 516.316406 C 353.667969 521.738281 349.253906 526.152344 343.796875 526.152344 L 298.363281 526.152344 C 292.9375 526.152344 288.527344 521.738281 288.527344 516.316406 Z M 206.234375 302.589844 C 206.234375 297.199219 210.613281 292.769531 216.039062 292.769531 L 261.503906 292.769531 C 266.929688 292.769531 271.308594 297.199219 271.308594 302.589844 L 271.308594 348.058594 C 271.308594 353.480469 266.929688 357.894531 261.503906 357.894531 L 216.039062 357.894531 C 210.613281 357.894531 206.234375 353.480469 206.234375 348.058594 Z M 206.234375 386.734375 C 206.234375 381.328125 210.613281 376.914062 216.039062 376.914062 L 261.503906 376.914062 C 266.929688 376.914062 271.308594 381.328125 271.308594 386.734375 L 271.308594 432.1875 C 271.308594 437.609375 266.929688 442.023438 261.503906 442.023438 L 216.039062 442.023438 C 210.613281 442.023438 206.234375 437.609375 206.234375 432.1875 Z M 206.234375 470.882812 C 206.234375 465.457031 210.613281 461.042969 216.039062 461.042969 L 261.503906 461.042969 C 266.929688 461.042969 271.308594 465.457031 271.308594 470.882812 L 271.308594 516.316406 C 271.308594 521.738281 266.929688 526.152344 261.503906 526.152344 L 216.039062 526.152344 C 210.613281 526.152344 206.234375 521.738281 206.234375 516.316406 Z M 435.960938 617.929688 L 206.234375 617.929688 L 206.234375 559.339844 C 206.234375 553.933594 210.613281 549.535156 216.039062 549.535156 L 426.125 549.535156 C 431.546875 549.535156 435.960938 553.933594 435.960938 559.339844 Z M 435.960938 516.316406 C 435.960938 521.738281 431.546875 526.152344 426.125 526.152344 L 380.691406 526.152344 C 375.230469 526.152344 370.851562 521.738281 370.851562 516.316406 L 370.851562 470.882812 C 370.851562 465.457031 375.230469 461.042969 380.691406 461.042969 L 426.125 461.042969 C 431.546875 461.042969 435.960938 465.457031 435.960938 470.882812 Z M 435.960938 432.1875 C 435.960938 437.609375 431.546875 442.023438 426.125 442.023438 L 380.691406 442.023438 C 375.230469 442.023438 370.851562 437.609375 370.851562 432.1875 L 370.851562 386.734375 C 370.851562 381.328125 375.230469 376.914062 380.691406 376.914062 L 426.125 376.914062 C 431.546875 376.914062 435.960938 381.328125 435.960938 386.734375 Z M 435.960938 348.058594 C 435.960938 353.480469 431.546875 357.894531 426.125 357.894531 L 380.691406 357.894531 C 375.230469 357.894531 370.851562 353.480469 370.851562 348.058594 L 370.851562 302.589844 C 370.851562 297.199219 375.230469 292.769531 380.691406 292.769531 L 426.125 292.769531 C 431.546875 292.769531 435.960938 297.199219 435.960938 302.589844 Z M 592.832031 573.121094 C 592.832031 577.28125 589.445312 580.667969 585.300781 580.667969 L 528.683594 580.667969 C 524.503906 580.667969 521.152344 577.28125 521.152344 573.121094 L 521.152344 516.515625 C 521.152344 512.355469 524.503906 508.988281 528.683594 508.988281 L 585.300781 508.988281 C 589.445312 508.988281 592.832031 512.355469 592.832031 516.515625 Z M 592.832031 478.527344 C 592.832031 482.691406 589.445312 486.074219 585.300781 486.074219 L 528.683594 486.074219 C 524.503906 486.074219 521.152344 482.691406 521.152344 478.527344 L 521.152344 421.925781 C 521.152344 417.78125 524.503906 414.394531 528.683594 414.394531 L 585.300781 414.394531 C 589.445312 414.394531 592.832031 417.78125 592.832031 421.925781 Z M 592.832031 383.9375 C 592.832031 388.097656 589.445312 391.484375 585.300781 391.484375 L 528.683594 391.484375 C 524.503906 391.484375 521.152344 388.097656 521.152344 383.9375 L 521.152344 327.335938 C 521.152344 323.175781 524.503906 319.804688 528.683594 319.804688 L 585.300781 319.804688 C 589.445312 319.804688 592.832031 323.175781 592.832031 327.335938 Z M 592.832031 289.347656 C 592.832031 293.507812 589.445312 296.894531 585.300781 296.894531 L 528.683594 296.894531 C 524.503906 296.894531 521.152344 293.507812 521.152344 289.347656 L 521.152344 232.746094 C 521.152344 228.601562 524.503906 225.214844 528.683594 225.214844 L 585.300781 225.214844 C 589.445312 225.214844 592.832031 228.601562 592.832031 232.746094 Z M 592.832031 289.347656 " fill-opacity="1" fill-rule="nonzero"/></g></svg>