<svg xmlns="http://www.w3.org/2000/svg" xmlns:xlink="http://www.w3.org/1999/xlink" width="1080" zoomAndPan="magnify" viewBox="0 0 810 809.999993" height="1080" preserveAspectRatio="xMidYMid meet" version="1.0"><defs><clipPath id="6dd37a94c9"><path d="M 126.5625 0 L 683.4375 0 C 753.335938 0 810 56.664062 810 126.5625 L 810 683.4375 C 810 753.335938 753.335938 810 683.4375 810 L 126.5625 810 C 56.664062 810 0 753.335938 0 683.4375 L 0 126.5625 C 0 56.664062 56.664062 0 126.5625 0 Z M 126.5625 0 " clip-rule="nonzero"/></clipPath><clipPath id="5d73c0eb53"><path d="M 350 182.074219 L 659.441406 182.074219 L 659.441406 608 L 350 608 Z M 350 182.074219 " clip-rule="nonzero"/></clipPath><clipPath id="3dab2c02c8"><path d="M 275 605 L 334.792969 605 L 334.792969 627.945312 L 275 627.945312 Z M 275 605 " clip-rule="nonzero"/></clipPath></defs><g clip-path="url(#6dd37a94c9)"><rect x="-81" width="972" fill="#8a8a8a" y="-80.999999" height="971.999992" fill-opacity="1"/></g><g clip-path="url(#5d73c0eb53)"><path fill="#ffffff" d="M 543.339844 245.800781 L 543.890625 246.179688 L 619.597656 298.179688 L 619.976562 297.625 L 653.878906 248.273438 C 658.664062 241.300781 660.441406 232.671875 658.902344 224.375 C 657.347656 215.988281 652.605469 208.613281 645.574219 203.78125 L 622.070312 187.640625 C 615.101562 182.855469 606.46875 181.074219 598.171875 182.617188 C 589.789062 184.171875 582.410156 188.90625 577.578125 195.945312 Z M 437.386719 559.769531 L 362.566406 508.398438 L 350.964844 607.085938 Z M 536.542969 255.816406 L 612.257812 307.816406 L 612.804688 308.199219 L 444.34375 553.339844 L 443.964844 553.894531 L 368.25 501.894531 L 367.703125 501.511719 L 536.167969 256.367188 L 536.542969 255.816406 " fill-opacity="1" fill-rule="evenodd"/></g><path fill="#ffffff" d="M 158.746094 522.214844 C 153.296875 524.246094 150.527344 530.304688 152.554688 535.75 C 154.582031 541.195312 160.640625 543.96875 166.089844 541.9375 C 168.484375 541.042969 170.859375 540.382812 173.195312 539.9375 C 181.910156 538.277344 189.699219 539.902344 196.015625 543.988281 C 202.683594 548.300781 207.980469 555.371094 211.316406 564.316406 C 212.433594 567.320312 213.328125 570.574219 213.996094 574.042969 C 215.324219 581.015625 215.863281 588.023438 216.375 594.65625 C 217.027344 603.125 217.636719 611.035156 219.855469 619.109375 L 230.003906 616.34375 L 219.820312 619.140625 C 221.171875 624.0625 225.792969 627.210938 230.691406 626.882812 C 267.652344 627.46875 269.773438 587.707031 271.59375 553.378906 C 272.480469 536.71875 273.269531 521.894531 275.445312 521.199219 C 277.683594 520.488281 280.640625 521.851562 283.273438 523.058594 C 296.707031 529.253906 307.253906 534.109375 319.480469 501.351562 C 324.550781 487.78125 327.371094 478.960938 328.957031 469.769531 C 330.5625 460.449219 330.851562 451.316406 330.851562 437.125 C 330.851562 431.289062 326.125 426.558594 320.289062 426.558594 C 314.457031 426.558594 309.730469 431.289062 309.730469 437.125 C 309.730469 450.25 309.488281 458.527344 308.160156 466.21875 C 306.8125 474.046875 304.304688 481.847656 299.757812 494.007812 C 295.484375 505.476562 293.996094 504.789062 292.097656 503.917969 C 286 501.109375 279.152344 497.957031 269.089844 501.148438 C 253 506.261719 251.847656 527.949219 250.550781 552.308594 C 249.460938 572.820312 248.226562 596.011719 238.335938 603.425781 C 237.960938 600.140625 237.691406 596.671875 237.417969 593.089844 C 236.871094 585.988281 236.289062 578.480469 234.703125 570.167969 C 233.835938 565.582031 232.597656 561.167969 231.03125 556.972656 C 226.109375 543.761719 217.960938 533.105469 207.484375 526.332031 C 196.664062 519.332031 183.628906 516.5 169.316406 519.222656 C 165.894531 519.878906 162.359375 520.867188 158.746094 522.214844 " fill-opacity="1" fill-rule="nonzero"/><g clip-path="url(#3dab2c02c8)"><path fill="#ffffff" d="M 286.429688 605.203125 C 280.617188 604.953125 275.703125 609.460938 275.457031 615.269531 C 275.203125 621.082031 279.710938 625.996094 285.523438 626.242188 L 323.566406 627.941406 C 329.375 628.1875 334.289062 623.679688 334.542969 617.875 C 334.789062 612.0625 330.28125 607.148438 324.476562 606.898438 L 286.429688 605.203125 " fill-opacity="1" fill-rule="nonzero"/></g></svg>