<svg xmlns="http://www.w3.org/2000/svg" xmlns:xlink="http://www.w3.org/1999/xlink" width="1080" zoomAndPan="magnify" viewBox="0 0 810 809.999993" height="1080" preserveAspectRatio="xMidYMid meet" version="1.0"><defs><clipPath id="c493118d0b"><path d="M 126.5625 0 L 683.4375 0 C 753.335938 0 810 56.664062 810 126.5625 L 810 683.4375 C 810 753.335938 753.335938 810 683.4375 810 L 126.5625 810 C 56.664062 810 0 753.335938 0 683.4375 L 0 126.5625 C 0 56.664062 56.664062 0 126.5625 0 Z M 126.5625 0 " clip-rule="nonzero"/></clipPath><clipPath id="57411a8624"><path d="M 156.832031 156.832031 L 653.332031 156.832031 L 653.332031 653.332031 L 156.832031 653.332031 Z M 156.832031 156.832031 " clip-rule="nonzero"/></clipPath></defs><g clip-path="url(#c493118d0b)"><rect x="-81" width="972" fill="#8a8a8a" y="-80.999999" height="971.999992" fill-opacity="1"/></g><g clip-path="url(#57411a8624)"><path fill="#ffffff" d="M 603.523438 156.832031 L 206.464844 156.832031 C 204.839844 156.832031 203.21875 156.914062 201.601562 157.070312 C 199.984375 157.230469 198.375 157.46875 196.78125 157.785156 C 195.1875 158.105469 193.613281 158.496094 192.058594 158.96875 C 190.503906 159.441406 188.972656 159.988281 187.472656 160.609375 C 185.96875 161.234375 184.503906 161.925781 183.070312 162.691406 C 181.636719 163.460938 180.242188 164.292969 178.890625 165.199219 C 177.539062 166.101562 176.234375 167.066406 174.980469 168.097656 C 173.722656 169.128906 172.519531 170.21875 171.371094 171.371094 C 170.21875 172.519531 169.128906 173.722656 168.097656 174.980469 C 167.066406 176.234375 166.101562 177.539062 165.195312 178.890625 C 164.292969 180.242188 163.460938 181.636719 162.691406 183.070312 C 161.925781 184.503906 161.234375 185.96875 160.609375 187.472656 C 159.988281 188.972656 159.441406 190.503906 158.96875 192.058594 C 158.496094 193.613281 158.101562 195.1875 157.785156 196.78125 C 157.46875 198.375 157.230469 199.984375 157.070312 201.601562 C 156.914062 203.21875 156.832031 204.839844 156.832031 206.464844 L 156.832031 603.523438 C 156.832031 605.148438 156.914062 606.773438 157.070312 608.390625 C 157.230469 610.007812 157.46875 611.613281 157.785156 613.207031 C 158.101562 614.800781 158.496094 616.375 158.96875 617.933594 C 159.441406 619.488281 159.988281 621.015625 160.609375 622.519531 C 161.234375 624.019531 161.925781 625.488281 162.691406 626.921875 C 163.460938 628.355469 164.292969 629.746094 165.195312 631.097656 C 166.101562 632.449219 167.066406 633.753906 168.097656 635.011719 C 169.128906 636.265625 170.21875 637.46875 171.371094 638.621094 C 172.519531 639.769531 173.722656 640.859375 174.980469 641.890625 C 176.234375 642.921875 177.539062 643.890625 178.890625 644.792969 C 180.242188 645.695312 181.636719 646.53125 183.070312 647.296875 C 184.503906 648.0625 185.96875 648.757812 187.472656 649.378906 C 188.972656 650 190.503906 650.546875 192.058594 651.019531 C 193.613281 651.492188 195.1875 651.886719 196.78125 652.203125 C 198.375 652.519531 199.984375 652.757812 201.601562 652.917969 C 203.21875 653.078125 204.839844 653.15625 206.464844 653.15625 L 603.523438 653.15625 C 605.148438 653.15625 606.773438 653.078125 608.390625 652.917969 C 610.007812 652.757812 611.613281 652.519531 613.207031 652.203125 C 614.800781 651.886719 616.375 651.492188 617.933594 651.019531 C 619.488281 650.546875 621.015625 650 622.519531 649.378906 C 624.019531 648.757812 625.488281 648.0625 626.921875 647.296875 C 628.355469 646.53125 629.746094 645.695312 631.097656 644.792969 C 632.449219 643.890625 633.753906 642.921875 635.011719 641.890625 C 636.265625 640.859375 637.46875 639.769531 638.621094 638.621094 C 639.769531 637.46875 640.859375 636.265625 641.890625 635.011719 C 642.921875 633.753906 643.890625 632.449219 644.792969 631.097656 C 645.695312 629.746094 646.53125 628.355469 647.296875 626.921875 C 648.0625 625.488281 648.757812 624.019531 649.378906 622.519531 C 650 621.015625 650.546875 619.488281 651.019531 617.933594 C 651.492188 616.375 651.886719 614.800781 652.203125 613.207031 C 652.519531 611.613281 652.757812 610.007812 652.917969 608.390625 C 653.078125 606.773438 653.15625 605.148438 653.15625 603.523438 L 653.15625 206.464844 C 653.15625 204.839844 653.078125 203.21875 652.917969 201.601562 C 652.757812 199.984375 652.519531 198.375 652.203125 196.78125 C 651.886719 195.1875 651.492188 193.613281 651.019531 192.058594 C 650.546875 190.503906 650 188.972656 649.378906 187.472656 C 648.757812 185.96875 648.0625 184.503906 647.296875 183.070312 C 646.53125 181.636719 645.695312 180.242188 644.792969 178.890625 C 643.890625 177.539062 642.921875 176.234375 641.890625 174.980469 C 640.859375 173.722656 639.769531 172.519531 638.621094 171.371094 C 637.46875 170.21875 636.265625 169.128906 635.011719 168.097656 C 633.753906 167.066406 632.449219 166.101562 631.097656 165.199219 C 629.746094 164.292969 628.355469 163.460938 626.921875 162.691406 C 625.488281 161.925781 624.019531 161.234375 622.519531 160.609375 C 621.015625 159.988281 619.488281 159.441406 617.933594 158.96875 C 616.375 158.496094 614.800781 158.105469 613.207031 157.785156 C 611.613281 157.46875 610.007812 157.230469 608.390625 157.070312 C 606.773438 156.914062 605.148438 156.832031 603.523438 156.832031 Z M 206.464844 189.921875 L 603.523438 189.921875 C 604.066406 189.921875 604.605469 189.949219 605.144531 190 C 605.683594 190.054688 606.21875 190.132812 606.753906 190.238281 C 607.285156 190.34375 607.808594 190.476562 608.328125 190.632812 C 608.84375 190.789062 609.355469 190.972656 609.855469 191.179688 C 610.355469 191.386719 610.84375 191.617188 611.324219 191.875 C 611.800781 192.128906 612.265625 192.40625 612.714844 192.710938 C 613.167969 193.011719 613.601562 193.332031 614.019531 193.675781 C 614.4375 194.019531 614.839844 194.382812 615.222656 194.765625 C 615.605469 195.148438 615.96875 195.550781 616.3125 195.96875 C 616.65625 196.386719 616.980469 196.824219 617.28125 197.273438 C 617.582031 197.722656 617.859375 198.1875 618.113281 198.667969 C 618.371094 199.144531 618.601562 199.632812 618.808594 200.132812 C 619.015625 200.632812 619.199219 201.144531 619.355469 201.664062 C 619.511719 202.179688 619.644531 202.707031 619.75 203.238281 C 619.855469 203.769531 619.9375 204.304688 619.988281 204.84375 C 620.042969 205.382812 620.070312 205.921875 620.070312 206.464844 L 620.070312 404.996094 L 514.1875 325.582031 C 513.394531 324.992188 512.558594 324.472656 511.675781 324.03125 C 510.792969 323.585938 509.878906 323.226562 508.929688 322.949219 C 507.984375 322.667969 507.019531 322.476562 506.039062 322.371094 C 505.054688 322.265625 504.074219 322.246094 503.085938 322.316406 C 502.101562 322.386719 501.132812 322.542969 500.175781 322.789062 C 499.21875 323.03125 498.289062 323.359375 497.390625 323.769531 C 496.492188 324.179688 495.636719 324.667969 494.828125 325.230469 C 494.015625 325.792969 493.261719 326.421875 492.5625 327.121094 L 367.851562 451.832031 L 300.023438 392.539062 C 299.238281 391.851562 298.398438 391.246094 297.503906 390.71875 C 296.605469 390.191406 295.667969 389.753906 294.6875 389.402344 C 293.707031 389.050781 292.703125 388.796875 291.675781 388.636719 C 290.648438 388.476562 289.617188 388.410156 288.574219 388.445312 C 287.535156 388.480469 286.507812 388.613281 285.492188 388.839844 C 284.476562 389.066406 283.492188 389.386719 282.539062 389.800781 C 281.585938 390.214844 280.675781 390.714844 279.816406 391.300781 C 278.957031 391.886719 278.160156 392.546875 277.421875 393.28125 L 189.921875 480.867188 L 189.921875 206.464844 C 189.921875 205.921875 189.949219 205.382812 190 204.84375 C 190.054688 204.304688 190.132812 203.769531 190.238281 203.238281 C 190.34375 202.707031 190.476562 202.179688 190.632812 201.664062 C 190.789062 201.144531 190.972656 200.632812 191.179688 200.132812 C 191.386719 199.632812 191.617188 199.144531 191.875 198.667969 C 192.128906 198.1875 192.40625 197.722656 192.710938 197.273438 C 193.011719 196.824219 193.332031 196.386719 193.675781 195.96875 C 194.019531 195.550781 194.382812 195.148438 194.765625 194.765625 C 195.148438 194.382812 195.550781 194.019531 195.96875 193.675781 C 196.386719 193.332031 196.824219 193.011719 197.273438 192.710938 C 197.722656 192.40625 198.1875 192.128906 198.667969 191.875 C 199.144531 191.617188 199.632812 191.386719 200.132812 191.179688 C 200.632812 190.972656 201.144531 190.789062 201.664062 190.632812 C 202.179688 190.476562 202.707031 190.34375 203.238281 190.238281 C 203.769531 190.132812 204.304688 190.054688 204.84375 190 C 205.382812 189.949219 205.921875 189.921875 206.464844 189.921875 Z M 189.921875 603.523438 L 189.921875 527.652344 L 289.929688 427.644531 L 509.867188 620.070312 L 206.464844 620.070312 C 205.921875 620.070312 205.382812 620.042969 204.84375 619.988281 C 204.304688 619.9375 203.769531 619.855469 203.238281 619.75 C 202.707031 619.644531 202.179688 619.511719 201.664062 619.355469 C 201.144531 619.199219 200.632812 619.015625 200.132812 618.808594 C 199.632812 618.601562 199.144531 618.371094 198.667969 618.113281 C 198.1875 617.859375 197.722656 617.582031 197.273438 617.28125 C 196.824219 616.980469 196.386719 616.65625 195.96875 616.3125 C 195.550781 615.96875 195.148438 615.605469 194.765625 615.222656 C 194.382812 614.839844 194.019531 614.4375 193.675781 614.019531 C 193.332031 613.601562 193.011719 613.167969 192.710938 612.714844 C 192.40625 612.265625 192.128906 611.800781 191.875 611.324219 C 191.617188 610.84375 191.386719 610.355469 191.179688 609.855469 C 190.972656 609.355469 190.789062 608.84375 190.632812 608.328125 C 190.476562 607.808594 190.34375 607.285156 190.238281 606.753906 C 190.132812 606.21875 190.054688 605.683594 190 605.144531 C 189.949219 604.605469 189.921875 604.066406 189.921875 603.523438 Z M 603.523438 620.070312 L 560.113281 620.070312 L 392.800781 473.667969 L 505.816406 360.65625 L 620.070312 446.355469 L 620.070312 603.523438 C 620.070312 604.066406 620.042969 604.605469 619.988281 605.144531 C 619.9375 605.683594 619.855469 606.21875 619.75 606.753906 C 619.644531 607.285156 619.511719 607.808594 619.355469 608.328125 C 619.199219 608.84375 619.015625 609.355469 618.808594 609.855469 C 618.601562 610.355469 618.371094 610.84375 618.113281 611.324219 C 617.859375 611.800781 617.582031 612.265625 617.28125 612.714844 C 616.980469 613.167969 616.65625 613.601562 616.3125 614.019531 C 615.96875 614.4375 615.605469 614.839844 615.222656 615.222656 C 614.839844 615.605469 614.4375 615.96875 614.019531 616.3125 C 613.601562 616.65625 613.167969 616.980469 612.714844 617.28125 C 612.265625 617.582031 611.800781 617.859375 611.324219 618.113281 C 610.84375 618.371094 610.355469 618.601562 609.855469 618.808594 C 609.355469 619.015625 608.84375 619.199219 608.328125 619.355469 C 607.808594 619.511719 607.285156 619.644531 606.753906 619.75 C 606.21875 619.855469 605.683594 619.9375 605.144531 619.988281 C 604.605469 620.042969 604.066406 620.070312 603.523438 620.070312 Z M 603.523438 620.070312 " fill-opacity="1" fill-rule="nonzero"/></g><path fill="#ffffff" d="M 322.273438 355.363281 C 323.355469 355.363281 324.441406 355.335938 325.519531 355.28125 C 326.601562 355.230469 327.683594 355.148438 328.761719 355.042969 C 329.839844 354.9375 330.914062 354.804688 331.984375 354.644531 C 333.054688 354.488281 334.121094 354.300781 335.183594 354.089844 C 336.246094 353.878906 337.304688 353.640625 338.355469 353.378906 C 339.402344 353.117188 340.449219 352.828125 341.484375 352.511719 C 342.519531 352.199219 343.546875 351.859375 344.566406 351.492188 C 345.589844 351.128906 346.597656 350.738281 347.597656 350.324219 C 348.597656 349.910156 349.589844 349.472656 350.566406 349.007812 C 351.546875 348.546875 352.515625 348.058594 353.46875 347.546875 C 354.425781 347.039062 355.367188 346.503906 356.296875 345.949219 C 357.222656 345.390625 358.140625 344.8125 359.039062 344.210938 C 359.941406 343.609375 360.824219 342.984375 361.695312 342.339844 C 362.566406 341.695312 363.417969 341.027344 364.257812 340.339844 C 365.09375 339.652344 365.914062 338.945312 366.714844 338.21875 C 367.519531 337.492188 368.300781 336.746094 369.066406 335.980469 C 369.832031 335.214844 370.582031 334.429688 371.308594 333.628906 C 372.035156 332.824219 372.742188 332.003906 373.429688 331.167969 C 374.117188 330.332031 374.78125 329.476562 375.425781 328.605469 C 376.074219 327.738281 376.695312 326.851562 377.296875 325.953125 C 377.898438 325.050781 378.480469 324.136719 379.035156 323.207031 C 379.59375 322.277344 380.125 321.335938 380.636719 320.382812 C 381.148438 319.425781 381.632812 318.460938 382.097656 317.480469 C 382.558594 316.5 383 315.511719 383.414062 314.511719 C 383.828125 313.511719 384.21875 312.5 384.582031 311.480469 C 384.945312 310.460938 385.285156 309.433594 385.601562 308.394531 C 385.914062 307.359375 386.203125 306.316406 386.46875 305.265625 C 386.730469 304.214844 386.96875 303.160156 387.179688 302.097656 C 387.390625 301.035156 387.574219 299.96875 387.734375 298.894531 C 387.894531 297.824219 388.027344 296.75 388.132812 295.671875 C 388.238281 294.59375 388.316406 293.515625 388.371094 292.433594 C 388.425781 291.351562 388.449219 290.269531 388.449219 289.1875 C 388.449219 288.101562 388.425781 287.019531 388.371094 285.9375 C 388.316406 284.855469 388.238281 283.777344 388.132812 282.699219 C 388.027344 281.621094 387.894531 280.546875 387.734375 279.476562 C 387.574219 278.40625 387.390625 277.335938 387.179688 276.277344 C 386.96875 275.214844 386.730469 274.15625 386.46875 273.105469 C 386.203125 272.054688 385.914062 271.011719 385.601562 269.976562 C 385.285156 268.9375 384.945312 267.910156 384.582031 266.890625 C 384.21875 265.871094 383.828125 264.863281 383.414062 263.859375 C 383 262.859375 382.558594 261.871094 382.097656 260.890625 C 381.632812 259.914062 381.148438 258.945312 380.636719 257.992188 C 380.125 257.035156 379.59375 256.09375 379.035156 255.164062 C 378.480469 254.234375 377.898438 253.320312 377.296875 252.421875 C 376.695312 251.519531 376.074219 250.632812 375.425781 249.765625 C 374.78125 248.894531 374.117188 248.042969 373.429688 247.203125 C 372.742188 246.367188 372.035156 245.546875 371.308594 244.746094 C 370.582031 243.941406 369.832031 243.15625 369.066406 242.390625 C 368.300781 241.625 367.519531 240.878906 366.714844 240.152344 C 365.914062 239.425781 365.09375 238.71875 364.257812 238.03125 C 363.417969 237.34375 362.566406 236.675781 361.695312 236.03125 C 360.824219 235.386719 359.941406 234.765625 359.039062 234.160156 C 358.140625 233.558594 357.222656 232.980469 356.296875 232.425781 C 355.367188 231.867188 354.425781 231.332031 353.46875 230.824219 C 352.515625 230.3125 351.546875 229.824219 350.566406 229.363281 C 349.589844 228.898438 348.597656 228.460938 347.597656 228.046875 C 346.597656 227.632812 345.589844 227.242188 344.566406 226.878906 C 343.546875 226.511719 342.519531 226.171875 341.484375 225.859375 C 340.449219 225.542969 339.402344 225.253906 338.355469 224.992188 C 337.304688 224.730469 336.246094 224.492188 335.183594 224.28125 C 334.121094 224.070312 333.054688 223.882812 331.984375 223.726562 C 330.914062 223.566406 329.839844 223.433594 328.761719 223.328125 C 327.683594 223.222656 326.601562 223.140625 325.519531 223.089844 C 324.441406 223.035156 323.355469 223.007812 322.273438 223.007812 C 321.191406 223.007812 320.109375 223.035156 319.027344 223.089844 C 317.945312 223.140625 316.867188 223.222656 315.789062 223.328125 C 314.710938 223.433594 313.636719 223.566406 312.5625 223.726562 C 311.492188 223.882812 310.425781 224.070312 309.363281 224.28125 C 308.300781 224.492188 307.246094 224.730469 306.195312 224.992188 C 305.144531 225.253906 304.101562 225.542969 303.0625 225.859375 C 302.027344 226.171875 301 226.511719 299.980469 226.878906 C 298.960938 227.242188 297.949219 227.632812 296.949219 228.046875 C 295.949219 228.460938 294.960938 228.898438 293.980469 229.363281 C 293 229.824219 292.035156 230.3125 291.078125 230.824219 C 290.125 231.332031 289.179688 231.867188 288.253906 232.425781 C 287.324219 232.980469 286.410156 233.558594 285.507812 234.160156 C 284.609375 234.765625 283.722656 235.386719 282.851562 236.03125 C 281.984375 236.675781 281.128906 237.34375 280.292969 238.03125 C 279.453125 238.71875 278.636719 239.425781 277.832031 240.152344 C 277.03125 240.878906 276.246094 241.625 275.480469 242.390625 C 274.714844 243.15625 273.96875 243.941406 273.242188 244.746094 C 272.511719 245.546875 271.804688 246.367188 271.117188 247.203125 C 270.433594 248.042969 269.765625 248.894531 269.121094 249.765625 C 268.476562 250.632812 267.851562 251.519531 267.25 252.421875 C 266.648438 253.320312 266.070312 254.234375 265.511719 255.164062 C 264.957031 256.09375 264.421875 257.035156 263.910156 257.992188 C 263.402344 258.945312 262.914062 259.914062 262.453125 260.890625 C 261.988281 261.871094 261.550781 262.859375 261.136719 263.859375 C 260.71875 264.863281 260.332031 265.871094 259.964844 266.890625 C 259.601562 267.910156 259.261719 268.9375 258.945312 269.976562 C 258.632812 271.011719 258.34375 272.054688 258.082031 273.105469 C 257.816406 274.15625 257.582031 275.214844 257.367188 276.277344 C 257.15625 277.335938 256.972656 278.40625 256.8125 279.476562 C 256.65625 280.546875 256.523438 281.621094 256.417969 282.699219 C 256.308594 283.777344 256.230469 284.855469 256.175781 285.9375 C 256.125 287.019531 256.097656 288.101562 256.097656 289.1875 C 256.097656 290.269531 256.125 291.351562 256.175781 292.433594 C 256.230469 293.515625 256.308594 294.59375 256.417969 295.671875 C 256.523438 296.75 256.65625 297.824219 256.8125 298.894531 C 256.972656 299.96875 257.15625 301.035156 257.367188 302.097656 C 257.582031 303.160156 257.816406 304.214844 258.082031 305.265625 C 258.34375 306.316406 258.632812 307.359375 258.945312 308.394531 C 259.261719 309.433594 259.601562 310.460938 259.964844 311.480469 C 260.332031 312.5 260.71875 313.511719 261.136719 314.511719 C 261.550781 315.511719 261.988281 316.5 262.449219 317.480469 C 262.914062 318.460938 263.402344 319.425781 263.910156 320.382812 C 264.421875 321.335938 264.957031 322.277344 265.511719 323.207031 C 266.070312 324.136719 266.648438 325.050781 267.25 325.953125 C 267.851562 326.851562 268.476562 327.738281 269.121094 328.605469 C 269.765625 329.476562 270.433594 330.332031 271.117188 331.167969 C 271.804688 332.003906 272.511719 332.824219 273.242188 333.628906 C 273.96875 334.429688 274.714844 335.214844 275.480469 335.980469 C 276.246094 336.746094 277.03125 337.492188 277.832031 338.21875 C 278.636719 338.945312 279.453125 339.652344 280.292969 340.339844 C 281.128906 341.027344 281.984375 341.695312 282.851562 342.339844 C 283.722656 342.984375 284.609375 343.609375 285.507812 344.210938 C 286.410156 344.8125 287.324219 345.390625 288.253906 345.949219 C 289.179688 346.503906 290.125 347.039062 291.078125 347.546875 C 292.035156 348.058594 293 348.546875 293.980469 349.007812 C 294.960938 349.472656 295.949219 349.910156 296.949219 350.324219 C 297.949219 350.738281 298.960938 351.128906 299.980469 351.492188 C 301 351.859375 302.027344 352.199219 303.0625 352.511719 C 304.101562 352.828125 305.144531 353.117188 306.195312 353.378906 C 307.246094 353.640625 308.300781 353.878906 309.363281 354.089844 C 310.425781 354.300781 311.492188 354.488281 312.5625 354.644531 C 313.636719 354.804688 314.710938 354.9375 315.789062 355.042969 C 316.867188 355.148438 317.945312 355.230469 319.027344 355.28125 C 320.109375 355.335938 321.191406 355.363281 322.273438 355.363281 Z M 322.273438 256.097656 C 323.359375 256.097656 324.4375 256.152344 325.515625 256.257812 C 326.597656 256.363281 327.667969 256.523438 328.730469 256.734375 C 329.792969 256.945312 330.84375 257.207031 331.878906 257.523438 C 332.917969 257.835938 333.933594 258.203125 334.9375 258.617188 C 335.9375 259.03125 336.917969 259.492188 337.871094 260.003906 C 338.828125 260.515625 339.757812 261.070312 340.65625 261.675781 C 341.558594 262.277344 342.425781 262.921875 343.265625 263.609375 C 344.101562 264.296875 344.90625 265.023438 345.671875 265.789062 C 346.4375 266.554688 347.164062 267.355469 347.851562 268.195312 C 348.539062 269.03125 349.183594 269.902344 349.785156 270.804688 C 350.386719 271.703125 350.945312 272.632812 351.457031 273.589844 C 351.964844 274.542969 352.429688 275.523438 352.84375 276.523438 C 353.257812 277.523438 353.621094 278.542969 353.9375 279.582031 C 354.253906 280.617188 354.515625 281.667969 354.726562 282.730469 C 354.9375 283.792969 355.097656 284.863281 355.203125 285.941406 C 355.308594 287.019531 355.363281 288.101562 355.363281 289.1875 C 355.363281 290.269531 355.308594 291.351562 355.203125 292.429688 C 355.097656 293.507812 354.9375 294.578125 354.726562 295.640625 C 354.515625 296.703125 354.253906 297.753906 353.9375 298.789062 C 353.621094 299.828125 353.257812 300.847656 352.84375 301.847656 C 352.429688 302.847656 351.964844 303.828125 351.457031 304.785156 C 350.945312 305.738281 350.386719 306.667969 349.785156 307.570312 C 349.183594 308.46875 348.539062 309.339844 347.851562 310.175781 C 347.164062 311.015625 346.4375 311.816406 345.671875 312.582031 C 344.90625 313.347656 344.101562 314.074219 343.265625 314.761719 C 342.425781 315.449219 341.558594 316.097656 340.65625 316.699219 C 339.757812 317.300781 338.828125 317.855469 337.871094 318.367188 C 336.917969 318.878906 335.9375 319.339844 334.9375 319.753906 C 333.933594 320.171875 332.917969 320.535156 331.878906 320.847656 C 330.84375 321.164062 329.792969 321.425781 328.730469 321.636719 C 327.667969 321.851562 326.597656 322.007812 325.515625 322.113281 C 324.4375 322.222656 323.359375 322.273438 322.273438 322.273438 C 321.191406 322.273438 320.109375 322.222656 319.03125 322.113281 C 317.953125 322.007812 316.882812 321.851562 315.820312 321.636719 C 314.757812 321.425781 313.707031 321.164062 312.667969 320.847656 C 311.632812 320.535156 310.613281 320.171875 309.613281 319.753906 C 308.609375 319.339844 307.632812 318.878906 306.675781 318.367188 C 305.71875 317.855469 304.792969 317.300781 303.890625 316.699219 C 302.988281 316.09375 302.121094 315.449219 301.28125 314.761719 C 300.445312 314.074219 299.644531 313.347656 298.878906 312.582031 C 298.109375 311.816406 297.382812 311.015625 296.695312 310.175781 C 296.007812 309.339844 295.363281 308.46875 294.761719 307.570312 C 294.160156 306.667969 293.605469 305.738281 293.09375 304.785156 C 292.582031 303.828125 292.121094 302.847656 291.703125 301.847656 C 291.289062 300.847656 290.925781 299.828125 290.609375 298.789062 C 290.296875 297.753906 290.03125 296.703125 289.820312 295.640625 C 289.609375 294.578125 289.453125 293.507812 289.34375 292.429688 C 289.238281 291.351562 289.1875 290.269531 289.1875 289.1875 C 289.1875 288.101562 289.238281 287.019531 289.34375 285.941406 C 289.453125 284.863281 289.609375 283.792969 289.820312 282.730469 C 290.03125 281.667969 290.296875 280.617188 290.609375 279.582031 C 290.925781 278.542969 291.289062 277.523438 291.703125 276.523438 C 292.121094 275.523438 292.582031 274.542969 293.09375 273.589844 C 293.605469 272.632812 294.160156 271.703125 294.761719 270.804688 C 295.363281 269.902344 296.007812 269.03125 296.695312 268.195312 C 297.382812 267.355469 298.109375 266.554688 298.878906 265.789062 C 299.644531 265.023438 300.445312 264.296875 301.28125 263.609375 C 302.121094 262.921875 302.988281 262.277344 303.890625 261.675781 C 304.792969 261.070312 305.71875 260.515625 306.675781 260.003906 C 307.632812 259.492188 308.609375 259.03125 309.613281 258.617188 C 310.613281 258.203125 311.632812 257.835938 312.667969 257.523438 C 313.707031 257.207031 314.757812 256.945312 315.820312 256.734375 C 316.882812 256.523438 317.953125 256.363281 319.03125 256.257812 C 320.109375 256.152344 321.191406 256.097656 322.273438 256.097656 Z M 322.273438 256.097656 " fill-opacity="1" fill-rule="nonzero"/></svg>