<svg xmlns="http://www.w3.org/2000/svg" xmlns:xlink="http://www.w3.org/1999/xlink" width="1080" zoomAndPan="magnify" viewBox="0 0 810 809.999993" height="1080" preserveAspectRatio="xMidYMid meet" version="1.0"><defs><clipPath id="78149cb13c"><path d="M 126.5625 0 L 683.4375 0 C 753.335938 0 810 56.664062 810 126.5625 L 810 683.4375 C 810 753.335938 753.335938 810 683.4375 810 L 126.5625 810 C 56.664062 810 0 753.335938 0 683.4375 L 0 126.5625 C 0 56.664062 56.664062 0 126.5625 0 Z M 126.5625 0 " clip-rule="nonzero"/></clipPath><clipPath id="e1b5346b60"><path d="M 142.691406 296 L 666.941406 296 L 666.941406 369 L 142.691406 369 Z M 142.691406 296 " clip-rule="nonzero"/></clipPath><clipPath id="1f8901ab8e"><path d="M 338 476 L 472 476 L 472 666.941406 L 338 666.941406 Z M 338 476 " clip-rule="nonzero"/></clipPath><clipPath id="50bc9b558e"><path d="M 142.691406 389 L 666.941406 389 L 666.941406 666.941406 L 142.691406 666.941406 Z M 142.691406 389 " clip-rule="nonzero"/></clipPath><clipPath id="c036842ea6"><path d="M 255 142.691406 L 555 142.691406 L 555 277 L 255 277 Z M 255 142.691406 " clip-rule="nonzero"/></clipPath></defs><g clip-path="url(#78149cb13c)"><rect x="-81" width="972" fill="#8a8a8a" y="-80.999999" height="971.999992" fill-opacity="1"/></g><g clip-path="url(#e1b5346b60)"><path fill="#ffffff" d="M 636.445312 296.988281 L 173.550781 296.988281 C 156.503906 296.988281 142.691406 310.804688 142.691406 327.847656 L 142.691406 368.996094 L 194.125 368.996094 L 194.125 363.851562 C 194.125 344 210.273438 327.847656 230.125 327.847656 C 249.976562 327.847656 266.128906 344 266.128906 363.851562 L 266.128906 368.996094 L 543.867188 368.996094 L 543.867188 363.851562 C 543.867188 344 560.015625 327.847656 579.867188 327.847656 C 599.71875 327.847656 615.871094 344 615.871094 363.851562 L 615.871094 368.996094 L 667.304688 368.996094 L 667.304688 327.847656 C 667.304688 310.804688 653.488281 296.988281 636.445312 296.988281 Z M 636.445312 296.988281 " fill-opacity="1" fill-rule="nonzero"/></g><path fill="#ffffff" d="M 230.125 348.421875 C 221.617188 348.421875 214.695312 355.34375 214.695312 363.851562 L 214.695312 410.140625 L 245.554688 410.140625 L 245.554688 363.851562 C 245.554688 355.34375 238.632812 348.421875 230.125 348.421875 Z M 230.125 348.421875 " fill-opacity="1" fill-rule="nonzero"/><path fill="#ffffff" d="M 579.867188 348.421875 C 571.359375 348.421875 564.4375 355.34375 564.4375 363.851562 L 564.4375 410.140625 L 595.296875 410.140625 L 595.296875 363.851562 C 595.296875 355.34375 588.375 348.421875 579.867188 348.421875 Z M 579.867188 348.421875 " fill-opacity="1" fill-rule="nonzero"/><g clip-path="url(#1f8901ab8e)"><path fill="#ffffff" d="M 471.859375 489.109375 L 441 476.765625 L 441 533.578125 C 441 539.257812 436.394531 543.867188 430.714844 543.867188 L 379.28125 543.867188 C 373.601562 543.867188 368.996094 539.257812 368.996094 533.578125 L 368.996094 476.765625 L 338.132812 489.109375 L 338.132812 550.289062 L 371.59375 588.527344 C 373.234375 590.402344 374.136719 592.808594 374.136719 595.300781 L 374.136719 667.304688 L 435.855469 667.304688 L 435.855469 595.300781 C 435.855469 592.808594 436.761719 590.402344 438.402344 588.527344 L 471.859375 550.285156 Z M 471.859375 489.109375 " fill-opacity="1" fill-rule="nonzero"/></g><g clip-path="url(#50bc9b558e)"><path fill="#ffffff" d="M 615.871094 420.425781 C 615.871094 426.105469 611.265625 430.714844 605.585938 430.714844 L 554.152344 430.714844 C 548.472656 430.714844 543.867188 426.105469 543.867188 420.425781 L 543.867188 389.566406 L 266.128906 389.566406 L 266.128906 420.425781 C 266.128906 426.105469 261.523438 430.714844 255.84375 430.714844 L 204.410156 430.714844 C 198.730469 430.714844 194.125 426.105469 194.125 420.425781 L 194.125 389.566406 L 142.691406 389.566406 L 142.691406 636.445312 C 142.691406 653.488281 156.503906 667.304688 173.550781 667.304688 L 353.566406 667.304688 L 353.566406 599.164062 L 320.105469 560.925781 C 318.464844 559.050781 317.5625 556.644531 317.5625 554.152344 L 317.5625 482.144531 C 317.5625 477.941406 320.121094 474.15625 324.027344 472.59375 L 375.460938 452.023438 C 382.210938 449.328125 389.566406 454.296875 389.566406 461.574219 L 389.566406 523.292969 L 420.425781 523.292969 L 420.425781 461.574219 C 420.425781 454.308594 427.777344 449.324219 434.535156 452.023438 L 485.964844 472.59375 C 489.871094 474.15625 492.433594 477.941406 492.433594 482.144531 L 492.433594 554.152344 C 492.433594 556.644531 491.527344 559.050781 489.886719 560.925781 L 456.429688 599.164062 L 456.429688 667.304688 L 636.445312 667.304688 C 653.488281 667.304688 667.304688 653.488281 667.304688 636.445312 L 667.304688 389.566406 L 615.871094 389.566406 Z M 615.871094 420.425781 " fill-opacity="1" fill-rule="nonzero"/></g><g clip-path="url(#c036842ea6)"><path fill="#ffffff" d="M 311.71875 183.835938 L 498.277344 183.835938 L 513.007812 276.414062 L 554.152344 276.414062 L 537.601562 168.859375 C 535.285156 153.800781 522.335938 142.691406 507.101562 142.691406 L 302.894531 142.691406 C 287.660156 142.691406 274.707031 153.800781 272.394531 168.859375 L 255.84375 276.414062 L 296.988281 276.414062 Z M 311.71875 183.835938 " fill-opacity="1" fill-rule="nonzero"/></g></svg>