<svg xmlns="http://www.w3.org/2000/svg" xmlns:xlink="http://www.w3.org/1999/xlink" width="1080" zoomAndPan="magnify" viewBox="0 0 810 809.999993" height="1080" preserveAspectRatio="xMidYMid meet" version="1.0"><defs><clipPath id="11b8af94cd"><path d="M 3.515625 3.515625 L 810 3.515625 L 810 810 L 3.515625 810 Z M 3.515625 3.515625 " clip-rule="nonzero"/></clipPath><clipPath id="3409f005af"><path d="M 129.527344 3.515625 L 683.988281 3.515625 C 753.582031 3.515625 810 59.933594 810 129.527344 L 810 683.988281 C 810 753.582031 753.582031 810 683.988281 810 L 129.527344 810 C 59.933594 810 3.515625 753.582031 3.515625 683.988281 L 3.515625 129.527344 C 3.515625 59.933594 59.933594 3.515625 129.527344 3.515625 Z M 129.527344 3.515625 " clip-rule="nonzero"/></clipPath><clipPath id="8393af584f"><path d="M 464 465 L 665 465 L 665 665.730469 L 464 665.730469 Z M 464 465 " clip-rule="nonzero"/></clipPath></defs><g clip-path="url(#11b8af94cd)"><g clip-path="url(#3409f005af)"><path fill="#8a8a8a" d="M 3.515625 3.515625 L 810 3.515625 L 810 810 L 3.515625 810 Z M 3.515625 3.515625 " fill-opacity="1" fill-rule="nonzero"/></g></g><path fill="#ffffff" d="M 361.425781 560.546875 C 357.355469 560.546875 353.292969 560.425781 349.230469 560.175781 C 345.167969 559.929688 341.121094 559.558594 337.082031 559.0625 C 333.042969 558.566406 329.023438 557.945312 325.023438 557.203125 C 321.023438 556.460938 317.050781 555.59375 313.101562 554.605469 C 309.15625 553.621094 305.242188 552.511719 301.363281 551.285156 C 297.484375 550.058594 293.644531 548.714844 289.847656 547.25 C 286.054688 545.789062 282.304688 544.210938 278.605469 542.515625 C 274.90625 540.824219 271.261719 539.019531 267.671875 537.101562 C 264.082031 535.183594 260.558594 533.160156 257.09375 531.027344 C 253.628906 528.894531 250.230469 526.65625 246.90625 524.3125 C 243.578125 521.972656 240.324219 519.53125 237.148438 516.988281 C 233.972656 514.449219 230.875 511.8125 227.859375 509.078125 C 224.84375 506.347656 221.914062 503.527344 219.074219 500.613281 C 216.230469 497.703125 213.480469 494.707031 210.824219 491.628906 C 208.164062 488.546875 205.601562 485.386719 203.140625 482.152344 C 200.675781 478.914062 198.3125 475.601562 196.050781 472.222656 C 193.789062 468.839844 191.632812 465.390625 189.585938 461.875 C 187.535156 458.359375 185.597656 454.785156 183.765625 451.152344 C 181.9375 447.515625 180.21875 443.832031 178.617188 440.089844 C 177.011719 436.351562 175.527344 432.566406 174.15625 428.734375 C 172.785156 424.90625 171.53125 421.035156 170.398438 417.128906 C 169.265625 413.222656 168.25 409.28125 167.359375 405.3125 C 166.46875 401.34375 165.699219 397.351562 165.054688 393.332031 C 164.40625 389.316406 163.882812 385.28125 163.484375 381.234375 C 163.085938 377.183594 162.8125 373.128906 162.660156 369.0625 C 162.511719 364.996094 162.488281 360.929688 162.585938 356.863281 C 162.6875 352.792969 162.910156 348.734375 163.261719 344.679688 C 163.609375 340.625 164.082031 336.585938 164.679688 332.5625 C 165.277344 328.539062 165.996094 324.535156 166.839844 320.554688 C 167.683594 316.574219 168.648438 312.625 169.734375 308.703125 C 170.820312 304.78125 172.023438 300.898438 173.347656 297.050781 C 174.671875 293.203125 176.113281 289.398438 177.667969 285.640625 C 179.226562 281.882812 180.898438 278.175781 182.683594 274.519531 C 184.46875 270.863281 186.363281 267.265625 188.371094 263.726562 C 190.375 260.183594 192.488281 256.710938 194.707031 253.300781 C 196.925781 249.890625 199.25 246.550781 201.671875 243.285156 C 204.097656 240.015625 206.621094 236.824219 209.242188 233.714844 C 211.859375 230.601562 214.574219 227.570312 217.378906 224.625 C 220.1875 221.679688 223.082031 218.820312 226.0625 216.054688 C 229.042969 213.285156 232.105469 210.609375 235.253906 208.03125 C 238.398438 205.449219 241.621094 202.96875 244.917969 200.585938 C 248.21875 198.203125 251.585938 195.925781 255.023438 193.75 C 258.460938 191.574219 261.964844 189.507812 265.527344 187.546875 C 269.09375 185.585938 272.714844 183.734375 276.394531 181.996094 C 280.074219 180.257812 283.800781 178.632812 287.578125 177.125 C 291.359375 175.617188 295.179688 174.222656 299.042969 172.949219 C 302.90625 171.675781 306.804688 170.519531 310.738281 169.484375 C 314.675781 168.449219 318.636719 167.535156 322.628906 166.742188 C 326.621094 165.949219 330.628906 165.28125 334.664062 164.734375 C 338.695312 164.191406 342.738281 163.769531 346.796875 163.472656 C 350.855469 163.171875 354.917969 163 358.984375 162.953125 C 363.054688 162.90625 367.121094 162.980469 371.183594 163.183594 C 375.246094 163.386719 379.300781 163.710938 383.34375 164.160156 C 387.390625 164.613281 391.414062 165.1875 395.421875 165.882812 C 399.433594 166.582031 403.414062 167.402344 407.371094 168.34375 C 411.332031 169.285156 415.257812 170.351562 419.148438 171.53125 C 423.042969 172.714844 426.894531 174.019531 430.707031 175.4375 C 434.519531 176.859375 438.285156 178.394531 442.003906 180.042969 C 445.722656 181.695312 449.386719 183.457031 453 185.335938 C 456.609375 187.210938 460.15625 189.195312 463.644531 191.289062 C 467.132812 193.382812 470.554688 195.582031 473.910156 197.886719 C 477.261719 200.191406 480.542969 202.59375 483.746094 205.101562 C 486.953125 207.605469 490.078125 210.207031 493.125 212.90625 C 496.171875 215.601562 499.132812 218.390625 502.007812 221.269531 C 505.460938 224.71875 508.785156 228.292969 511.972656 231.988281 C 515.164062 235.679688 518.214844 239.488281 521.125 243.410156 C 524.035156 247.328125 526.796875 251.351562 529.410156 255.472656 C 532.027344 259.597656 534.484375 263.808594 536.785156 268.113281 C 539.089844 272.417969 541.230469 276.800781 543.210938 281.265625 C 545.191406 285.726562 547.003906 290.257812 548.652344 294.851562 C 550.296875 299.449219 551.773438 304.097656 553.074219 308.804688 C 554.378906 313.507812 555.507812 318.253906 556.460938 323.042969 C 557.414062 327.828125 558.191406 332.644531 558.789062 337.492188 C 559.386719 342.335938 559.808594 347.195312 560.046875 352.074219 C 560.289062 356.949219 560.347656 361.828125 560.226562 366.707031 C 560.109375 371.589844 559.808594 376.457031 559.332031 381.316406 C 558.855469 386.175781 558.199219 391.007812 557.363281 395.820312 C 556.527344 400.628906 555.519531 405.402344 554.332031 410.136719 C 553.144531 414.871094 551.785156 419.558594 550.253906 424.191406 C 548.722656 428.828125 547.023438 433.402344 545.152344 437.910156 C 543.285156 442.421875 541.253906 446.855469 539.058594 451.21875 C 536.863281 455.578125 534.507812 459.851562 531.996094 464.039062 C 529.488281 468.222656 526.824219 472.3125 524.011719 476.304688 C 521.199219 480.292969 518.246094 484.175781 515.148438 487.949219 C 512.050781 491.722656 508.816406 495.375 505.449219 498.910156 C 502.082031 502.445312 498.589844 505.851562 494.96875 509.128906 C 491.351562 512.402344 487.617188 515.542969 483.765625 518.546875 C 479.917969 521.546875 475.960938 524.402344 471.902344 527.113281 C 467.839844 529.824219 463.6875 532.382812 459.4375 534.785156 C 455.1875 537.1875 450.855469 539.433594 446.441406 541.519531 C 442.027344 543.601562 437.542969 545.523438 432.988281 547.277344 C 428.429688 549.03125 423.816406 550.613281 419.144531 552.027344 C 414.472656 553.441406 409.753906 554.683594 404.988281 555.75 C 400.226562 556.816406 395.429688 557.703125 390.597656 558.417969 C 385.769531 559.128906 380.921875 559.664062 376.050781 560.019531 C 371.183594 560.375 366.308594 560.550781 361.425781 560.546875 Z M 361.425781 206.742188 C 358.460938 206.734375 355.5 206.8125 352.542969 206.976562 C 349.582031 207.140625 346.628906 207.386719 343.6875 207.71875 C 340.742188 208.050781 337.808594 208.46875 334.886719 208.96875 C 331.964844 209.46875 329.0625 210.050781 326.175781 210.71875 C 323.285156 211.386719 320.421875 212.136719 317.578125 212.964844 C 314.730469 213.796875 311.914062 214.710938 309.121094 215.703125 C 306.328125 216.695312 303.566406 217.765625 300.835938 218.917969 C 298.105469 220.066406 295.410156 221.296875 292.75 222.601562 C 290.089844 223.90625 287.46875 225.289062 284.886719 226.742188 C 282.304688 228.199219 279.769531 229.726562 277.273438 231.328125 C 274.78125 232.929688 272.335938 234.601562 269.9375 236.34375 C 267.539062 238.082031 265.191406 239.890625 262.898438 241.769531 C 260.605469 243.644531 258.367188 245.582031 256.183594 247.585938 C 254 249.589844 251.875 251.65625 249.808594 253.78125 C 247.746094 255.90625 245.742188 258.089844 243.804688 260.332031 C 241.863281 262.574219 239.992188 264.867188 238.183594 267.214844 C 236.375 269.5625 234.636719 271.960938 232.964844 274.410156 C 231.292969 276.855469 229.695312 279.347656 228.167969 281.890625 C 226.640625 284.429688 225.183594 287.007812 223.804688 289.632812 C 222.425781 292.253906 221.121094 294.914062 219.894531 297.613281 C 218.667969 300.308594 217.519531 303.039062 216.449219 305.804688 C 215.375 308.566406 214.386719 311.359375 213.476562 314.179688 C 212.5625 316.996094 211.734375 319.839844 210.988281 322.710938 C 210.238281 325.578125 209.574219 328.464844 208.992188 331.371094 C 208.410156 334.273438 207.910156 337.195312 207.496094 340.128906 C 207.082031 343.0625 206.75 346.007812 206.503906 348.960938 C 206.257812 351.914062 206.09375 354.871094 206.019531 357.835938 C 205.941406 360.796875 205.949219 363.757812 206.042969 366.722656 C 206.136719 369.683594 206.3125 372.640625 206.578125 375.589844 C 206.839844 378.542969 207.1875 381.484375 207.617188 384.417969 C 208.046875 387.347656 208.5625 390.265625 209.160156 393.167969 C 209.757812 396.070312 210.441406 398.953125 211.203125 401.816406 C 211.96875 404.679688 212.8125 407.519531 213.738281 410.335938 C 214.664062 413.148438 215.671875 415.9375 216.757812 418.695312 C 217.84375 421.449219 219.007812 424.175781 220.25 426.867188 C 221.492188 429.554688 222.808594 432.210938 224.203125 434.824219 C 225.597656 437.4375 227.066406 440.011719 228.609375 442.542969 C 230.148438 445.074219 231.761719 447.558594 233.445312 449.996094 C 235.128906 452.4375 236.882812 454.824219 238.703125 457.160156 C 240.523438 459.5 242.410156 461.785156 244.363281 464.015625 C 246.316406 466.242188 248.328125 468.414062 250.40625 470.53125 C 252.480469 472.644531 254.617188 474.699219 256.8125 476.691406 C 259.003906 478.683594 261.253906 480.609375 263.558594 482.472656 C 265.863281 484.335938 268.21875 486.132812 270.628906 487.859375 C 273.035156 489.585938 275.488281 491.246094 277.992188 492.832031 C 280.496094 494.421875 283.039062 495.933594 285.628906 497.375 C 288.21875 498.816406 290.847656 500.183594 293.515625 501.472656 C 296.183594 502.765625 298.886719 503.980469 301.621094 505.113281 C 304.359375 506.25 307.128906 507.308594 309.925781 508.285156 C 312.722656 509.261719 315.546875 510.15625 318.394531 510.972656 C 321.246094 511.789062 324.113281 512.523438 327.003906 513.171875 C 329.898438 513.824219 332.804688 514.390625 335.726562 514.875 C 338.652344 515.359375 341.585938 515.761719 344.53125 516.078125 C 347.480469 516.394531 350.433594 516.625 353.390625 516.769531 C 356.351562 516.917969 359.3125 516.980469 362.277344 516.957031 C 365.242188 516.933594 368.199219 516.824219 371.160156 516.632812 C 374.117188 516.441406 377.066406 516.164062 380.007812 515.800781 C 382.949219 515.441406 385.875 514.996094 388.792969 514.464844 C 391.707031 513.9375 394.605469 513.324219 397.488281 512.628906 C 400.367188 511.933594 403.226562 511.15625 406.0625 510.296875 C 408.898438 509.433594 411.707031 508.496094 414.488281 507.476562 C 417.273438 506.453125 420.023438 505.355469 422.742188 504.175781 C 425.460938 503 428.144531 501.742188 430.792969 500.410156 C 433.4375 499.082031 436.046875 497.671875 438.613281 496.191406 C 441.179688 494.710938 443.699219 493.15625 446.179688 491.53125 C 448.65625 489.90625 451.085938 488.210938 453.464844 486.445312 C 455.847656 484.679688 458.175781 482.847656 460.449219 480.949219 C 462.726562 479.050781 464.945312 477.089844 467.105469 475.0625 C 469.269531 473.035156 471.375 470.949219 473.417969 468.804688 C 475.460938 466.65625 477.441406 464.453125 479.359375 462.195312 C 481.273438 459.933594 483.125 457.621094 484.910156 455.257812 C 486.695312 452.890625 488.410156 450.476562 490.054688 448.011719 C 491.703125 445.546875 493.277344 443.039062 494.777344 440.484375 C 496.28125 437.929688 497.710938 435.332031 499.0625 432.695312 C 500.417969 430.058594 501.691406 427.386719 502.894531 424.679688 C 504.09375 421.96875 505.214844 419.226562 506.257812 416.453125 C 507.300781 413.679688 508.265625 410.878906 509.148438 408.050781 C 510.03125 405.21875 510.832031 402.367188 511.550781 399.492188 C 512.269531 396.617188 512.90625 393.726562 513.460938 390.8125 C 514.011719 387.902344 514.480469 384.976562 514.867188 382.039062 C 515.253906 379.101562 515.554688 376.152344 515.773438 373.199219 C 515.988281 370.242188 516.121094 367.285156 516.167969 364.320312 C 516.214844 361.359375 516.175781 358.394531 516.054688 355.433594 C 515.933594 352.472656 515.722656 349.519531 515.433594 346.570312 C 515.140625 343.621094 514.765625 340.683594 514.304688 337.753906 C 513.84375 334.828125 513.300781 331.914062 512.671875 329.019531 C 512.046875 326.121094 511.335938 323.246094 510.542969 320.390625 C 509.75 317.535156 508.878906 314.703125 507.921875 311.898438 C 506.96875 309.09375 505.933594 306.316406 504.820312 303.570312 C 503.707031 300.824219 502.515625 298.113281 501.25 295.433594 C 499.980469 292.757812 498.632812 290.117188 497.214844 287.515625 C 495.792969 284.914062 494.300781 282.355469 492.734375 279.839844 C 491.167969 277.324219 489.527344 274.855469 487.820312 272.4375 C 486.113281 270.015625 484.335938 267.644531 482.492188 265.324219 C 480.648438 263.003906 478.738281 260.738281 476.765625 258.527344 C 474.789062 256.320312 472.753906 254.167969 470.65625 252.074219 C 467.082031 248.492188 463.335938 245.097656 459.425781 241.886719 C 455.515625 238.675781 451.457031 235.664062 447.25 232.847656 C 443.042969 230.035156 438.710938 227.433594 434.25 225.046875 C 429.785156 222.660156 425.21875 220.496094 420.546875 218.554688 C 415.871094 216.617188 411.113281 214.910156 406.273438 213.4375 C 401.429688 211.964844 396.527344 210.730469 391.566406 209.738281 C 386.605469 208.75 381.605469 208.003906 376.570312 207.5 C 371.535156 207 366.484375 206.746094 361.425781 206.742188 Z M 361.425781 206.742188 " fill-opacity="1" fill-rule="nonzero"/><g clip-path="url(#8393af584f)"><path fill="#ffffff" d="M 643.246094 665.519531 C 641.8125 665.511719 640.394531 665.367188 638.992188 665.082031 C 637.585938 664.796875 636.226562 664.378906 634.902344 663.824219 C 633.582031 663.273438 632.328125 662.597656 631.140625 661.796875 C 629.953125 660.996094 628.851562 660.089844 627.84375 659.074219 L 471.09375 502.433594 C 470.589844 501.929688 470.109375 501.398438 469.652344 500.84375 C 469.199219 500.292969 468.773438 499.71875 468.375 499.121094 C 467.976562 498.527344 467.609375 497.914062 467.273438 497.28125 C 466.9375 496.648438 466.628906 496.003906 466.355469 495.34375 C 466.082031 494.679688 465.839844 494.007812 465.632812 493.324219 C 465.425781 492.636719 465.25 491.945312 465.113281 491.242188 C 464.972656 490.539062 464.867188 489.832031 464.796875 489.121094 C 464.726562 488.40625 464.691406 487.695312 464.691406 486.976562 C 464.691406 486.261719 464.726562 485.546875 464.796875 484.835938 C 464.867188 484.121094 464.972656 483.414062 465.113281 482.714844 C 465.25 482.011719 465.425781 481.316406 465.632812 480.632812 C 465.839844 479.949219 466.082031 479.273438 466.355469 478.613281 C 466.628906 477.953125 466.9375 477.304688 467.273438 476.671875 C 467.609375 476.042969 467.976562 475.429688 468.375 474.832031 C 468.773438 474.238281 469.199219 473.664062 469.652344 473.109375 C 470.109375 472.558594 470.589844 472.027344 471.09375 471.519531 C 471.601562 471.015625 472.128906 470.535156 472.683594 470.082031 C 473.238281 469.625 473.8125 469.199219 474.40625 468.804688 C 475.003906 468.40625 475.617188 468.039062 476.246094 467.699219 C 476.878906 467.363281 477.523438 467.058594 478.1875 466.78125 C 478.847656 466.507812 479.519531 466.269531 480.207031 466.058594 C 480.890625 465.851562 481.585938 465.679688 482.285156 465.539062 C 482.988281 465.398438 483.695312 465.292969 484.410156 465.222656 C 485.121094 465.152344 485.835938 465.117188 486.550781 465.117188 C 487.265625 465.117188 487.980469 465.152344 488.691406 465.222656 C 489.40625 465.292969 490.113281 465.398438 490.816406 465.539062 C 491.515625 465.679688 492.210938 465.851562 492.894531 466.058594 C 493.582031 466.269531 494.253906 466.507812 494.914062 466.78125 C 495.578125 467.058594 496.222656 467.363281 496.855469 467.699219 C 497.484375 468.039062 498.097656 468.40625 498.695312 468.804688 C 499.289062 469.199219 499.863281 469.625 500.417969 470.082031 C 500.972656 470.535156 501.5 471.015625 502.007812 471.519531 L 658.648438 628.269531 C 659.402344 629.03125 660.097656 629.839844 660.734375 630.703125 C 661.367188 631.5625 661.9375 632.46875 662.441406 633.414062 C 662.945312 634.359375 663.375 635.335938 663.734375 636.34375 C 664.09375 637.355469 664.378906 638.382812 664.585938 639.433594 C 664.792969 640.484375 664.921875 641.546875 664.972656 642.617188 C 665.027344 643.683594 665 644.753906 664.894531 645.820312 C 664.789062 646.886719 664.605469 647.9375 664.347656 648.976562 C 664.085938 650.015625 663.75 651.03125 663.34375 652.019531 C 662.933594 653.007812 662.453125 653.964844 661.902344 654.882812 C 661.355469 655.800781 660.738281 656.675781 660.0625 657.503906 C 659.382812 658.335938 658.648438 659.109375 657.855469 659.832031 C 657.0625 660.550781 656.222656 661.210938 655.335938 661.808594 C 654.445312 662.40625 653.515625 662.933594 652.550781 663.394531 C 651.582031 663.855469 650.585938 664.242188 649.5625 664.554688 C 648.539062 664.871094 647.5 665.109375 646.441406 665.269531 C 645.378906 665.429688 644.316406 665.511719 643.246094 665.519531 Z M 643.246094 665.519531 " fill-opacity="1" fill-rule="nonzero"/></g></svg>