<svg xmlns="http://www.w3.org/2000/svg" xmlns:xlink="http://www.w3.org/1999/xlink" width="1080" zoomAndPan="magnify" viewBox="0 0 810 809.999993" height="1080" preserveAspectRatio="xMidYMid meet" version="1.0"><defs><clipPath id="34d1b82e4a"><path d="M 3.515625 3.515625 L 810 3.515625 L 810 810 L 3.515625 810 Z M 3.515625 3.515625 " clip-rule="nonzero"/></clipPath><clipPath id="1e6d95f3f3"><path d="M 129.527344 3.515625 L 683.988281 3.515625 C 753.582031 3.515625 810 59.933594 810 129.527344 L 810 683.988281 C 810 753.582031 753.582031 810 683.988281 810 L 129.527344 810 C 59.933594 810 3.515625 753.582031 3.515625 683.988281 L 3.515625 129.527344 C 3.515625 59.933594 59.933594 3.515625 129.527344 3.515625 Z M 129.527344 3.515625 " clip-rule="nonzero"/></clipPath><clipPath id="c47bb28ce4"><path d="M 159.050781 160.808594 L 651 160.808594 L 651 652.808594 L 159.050781 652.808594 Z M 159.050781 160.808594 " clip-rule="nonzero"/></clipPath></defs><g clip-path="url(#34d1b82e4a)"><g clip-path="url(#1e6d95f3f3)"><path fill="#8a8a8a" d="M 3.515625 3.515625 L 810 3.515625 L 810 810 L 3.515625 810 Z M 3.515625 3.515625 " fill-opacity="1" fill-rule="nonzero"/></g></g><g clip-path="url(#c47bb28ce4)"><path fill="#ffffff" d="M 642.976562 652.667969 L 167.058594 652.667969 C 162.75 652.667969 159.257812 649.175781 159.257812 644.863281 L 159.257812 600.40625 C 159.257812 526.441406 219.433594 466.265625 293.402344 466.265625 L 516.632812 466.265625 C 590.601562 466.265625 650.777344 526.441406 650.777344 600.40625 L 650.777344 644.863281 C 650.777344 649.175781 647.285156 652.667969 642.976562 652.667969 Z M 405.015625 445.289062 C 326.585938 445.289062 262.777344 381.480469 262.777344 303.046875 C 262.777344 224.617188 326.585938 160.808594 405.015625 160.808594 C 483.449219 160.808594 547.257812 224.617188 547.257812 303.046875 C 547.257812 381.480469 483.449219 445.289062 405.015625 445.289062 Z M 405.015625 445.289062 " fill-opacity="1" fill-rule="nonzero"/></g></svg>