<svg xmlns="http://www.w3.org/2000/svg" xmlns:xlink="http://www.w3.org/1999/xlink" width="1080" zoomAndPan="magnify" viewBox="0 0 810 809.999993" height="1080" preserveAspectRatio="xMidYMid meet" version="1.0"><defs><clipPath id="8c4695b292"><path d="M 3.515625 3.515625 L 810 3.515625 L 810 810 L 3.515625 810 Z M 3.515625 3.515625 " clip-rule="nonzero"/></clipPath><clipPath id="9d44333958"><path d="M 129.527344 3.515625 L 683.988281 3.515625 C 753.582031 3.515625 810 59.933594 810 129.527344 L 810 683.988281 C 810 753.582031 753.582031 810 683.988281 810 L 129.527344 810 C 59.933594 810 3.515625 753.582031 3.515625 683.988281 L 3.515625 129.527344 C 3.515625 59.933594 59.933594 3.515625 129.527344 3.515625 Z M 129.527344 3.515625 " clip-rule="nonzero"/></clipPath><clipPath id="8fb2f248e6"><path d="M 161.359375 161.359375 L 651.859375 161.359375 L 651.859375 651.859375 L 161.359375 651.859375 Z M 161.359375 161.359375 " clip-rule="nonzero"/></clipPath></defs><g clip-path="url(#8c4695b292)"><g clip-path="url(#9d44333958)"><path fill="#8a8a8a" d="M 3.515625 3.515625 L 810 3.515625 L 810 810 L 3.515625 810 Z M 3.515625 3.515625 " fill-opacity="1" fill-rule="nonzero"/></g></g><g clip-path="url(#8fb2f248e6)"><path fill="#ffffff" d="M 406.757812 652.152344 C 341.207031 652.152344 279.585938 626.625 233.234375 580.28125 C 186.886719 533.925781 161.359375 472.304688 161.359375 406.757812 C 161.359375 341.207031 186.886719 279.585938 233.234375 233.234375 C 279.585938 186.886719 341.207031 161.359375 406.757812 161.359375 C 472.304688 161.359375 533.925781 186.886719 580.28125 233.234375 C 626.625 279.585938 652.152344 341.207031 652.152344 406.757812 C 652.152344 472.304688 626.625 533.925781 580.28125 580.28125 C 533.933594 626.632812 472.304688 652.152344 406.757812 652.152344 Z M 406.757812 198.8125 C 292.09375 198.8125 198.8125 292.101562 198.8125 406.757812 C 198.8125 521.421875 292.101562 614.699219 406.757812 614.699219 C 521.421875 614.699219 614.699219 521.414062 614.699219 406.757812 C 614.699219 292.09375 521.421875 198.8125 406.757812 198.8125 Z M 406.757812 198.8125 " fill-opacity="1" fill-rule="nonzero"/></g><path fill="#ffffff" d="M 488.210938 501.511719 C 484.5625 501.511719 480.875 500.445312 477.636719 498.226562 L 386.410156 435.667969 C 381.308594 432.167969 378.269531 426.382812 378.273438 420.191406 L 378.511719 267.109375 C 378.527344 256.777344 386.910156 248.414062 397.234375 248.414062 C 397.242188 248.414062 397.253906 248.414062 397.261719 248.414062 C 407.601562 248.429688 415.972656 256.828125 415.957031 267.167969 L 415.734375 410.371094 L 498.8125 467.339844 C 507.339844 473.191406 509.515625 484.847656 503.664062 493.375 C 500.035156 498.664062 494.167969 501.511719 488.210938 501.511719 Z M 488.210938 501.511719 " fill-opacity="1" fill-rule="nonzero"/></svg>