<svg xmlns="http://www.w3.org/2000/svg" xmlns:xlink="http://www.w3.org/1999/xlink" width="1080" zoomAndPan="magnify" viewBox="0 0 810 809.999993" height="1080" preserveAspectRatio="xMidYMid meet" version="1.0"><defs><clipPath id="04282732c2"><path d="M 126.5625 0 L 683.4375 0 C 753.335938 0 810 56.664062 810 126.5625 L 810 683.4375 C 810 753.335938 753.335938 810 683.4375 810 L 126.5625 810 C 56.664062 810 0 753.335938 0 683.4375 L 0 126.5625 C 0 56.664062 56.664062 0 126.5625 0 Z M 126.5625 0 " clip-rule="nonzero"/></clipPath><clipPath id="edb0f15acc"><path d="M 167.40625 167.40625 L 642.90625 167.40625 L 642.90625 642.90625 L 167.40625 642.90625 Z M 167.40625 167.40625 " clip-rule="nonzero"/></clipPath></defs><g clip-path="url(#04282732c2)"><rect x="-81" width="972" fill="#8a8a8a" y="-80.999999" height="971.999992" fill-opacity="1"/></g><g clip-path="url(#edb0f15acc)"><path fill="#ffffff" d="M 636.710938 516.238281 C 640.183594 525.507812 642.207031 535.464844 642.511719 545.878906 C 642.585938 546.871094 642.585938 547.863281 642.585938 548.894531 C 642.585938 600.625 600.621094 642.585938 548.890625 642.585938 C 338.199219 642.585938 167.40625 471.796875 167.40625 261.097656 C 167.40625 209.371094 209.371094 167.40625 261.101562 167.40625 C 262.128906 167.40625 263.121094 167.40625 264.113281 167.480469 C 274.527344 167.789062 284.523438 169.8125 293.792969 173.28125 L 328.964844 325.570312 C 328.964844 325.648438 328.929688 325.6875 328.851562 325.722656 L 264.339844 354.714844 L 264.152344 354.792969 C 293.753906 444.9375 365.054688 516.238281 455.199219 545.84375 L 455.277344 545.652344 L 484.308594 481.105469 L 636.710938 516.238281 " fill-opacity="1" fill-rule="nonzero"/></g></svg>