<svg xmlns="http://www.w3.org/2000/svg" xmlns:xlink="http://www.w3.org/1999/xlink" width="1080" zoomAndPan="magnify" viewBox="0 0 810 809.999993" height="1080" preserveAspectRatio="xMidYMid meet" version="1.0"><defs><clipPath id="4c7a2af654"><path d="M 126.5625 0 L 683.4375 0 C 753.335938 0 810 56.664062 810 126.5625 L 810 683.4375 C 810 753.335938 753.335938 810 683.4375 810 L 126.5625 810 C 56.664062 810 0 753.335938 0 683.4375 L 0 126.5625 C 0 56.664062 56.664062 0 126.5625 0 Z M 126.5625 0 " clip-rule="nonzero"/></clipPath><clipPath id="e31897fbe7"><path d="M 163 163 L 652.769531 163 L 652.769531 652.769531 L 163 652.769531 Z M 163 163 " clip-rule="nonzero"/></clipPath></defs><g clip-path="url(#4c7a2af654)"><rect x="-81" width="972" fill="#8a8a8a" y="-80.999999" height="971.999992" fill-opacity="1"/></g><g clip-path="url(#e31897fbe7)"><path fill="#ffffff" d="M 370.945312 301.378906 C 464.953125 395.386719 558.960938 489.394531 652.972656 583.402344 C 640.972656 595.398438 642.789062 618.792969 630.789062 630.789062 C 619.597656 641.980469 594.597656 641.777344 583.40625 652.96875 L 301.378906 370.945312 C 264.960938 382.292969 223.636719 373.550781 194.792969 344.707031 C 165.644531 315.5625 157.019531 273.664062 168.917969 236.96875 L 230.277344 298.332031 L 286.289062 288.699219 L 298.332031 230.277344 L 236.972656 168.914062 C 273.667969 157.019531 315.5625 165.644531 344.710938 194.789062 C 373.554688 223.632812 382.292969 264.960938 370.945312 301.378906 Z M 347.230469 369.410156 L 369.410156 347.230469 L 609.871094 587.6875 L 587.6875 609.867188 Z M 347.230469 369.410156 " fill-opacity="1" fill-rule="evenodd"/></g></svg>