<svg xmlns="http://www.w3.org/2000/svg" xmlns:xlink="http://www.w3.org/1999/xlink" width="1080" zoomAndPan="magnify" viewBox="0 0 810 809.999993" height="1080" preserveAspectRatio="xMidYMid meet" version="1.0"><defs><clipPath id="abbf2ae6be"><path d="M 126.5625 0 L 683.4375 0 C 753.335938 0 810 56.664062 810 126.5625 L 810 683.4375 C 810 753.335938 753.335938 810 683.4375 810 L 126.5625 810 C 56.664062 810 0 753.335938 0 683.4375 L 0 126.5625 C 0 56.664062 56.664062 0 126.5625 0 Z M 126.5625 0 " clip-rule="nonzero"/></clipPath><clipPath id="1e24239e9a"><path d="M 259 136.066406 L 552 136.066406 L 552 332 L 259 332 Z M 259 136.066406 " clip-rule="nonzero"/></clipPath><clipPath id="d22481dfd5"><path d="M 153 459 L 658 459 L 658 673.816406 L 153 673.816406 Z M 153 459 " clip-rule="nonzero"/></clipPath></defs><g clip-path="url(#abbf2ae6be)"><rect x="-81" width="972" fill="#8a8a8a" y="-80.999999" height="971.999992" fill-opacity="1"/></g><path fill="#ffffff" d="M 286.699219 346.28125 C 297.636719 402.554688 346.289062 444.824219 405.277344 444.824219 C 464.308594 444.824219 512.996094 402.554688 523.933594 346.28125 C 516.671875 347.335938 507.636719 348.394531 496.03125 349.558594 C 473.238281 351.816406 442.507812 353.792969 405.25 353.792969 C 367.992188 353.792969 337.226562 351.816406 314.472656 349.558594 C 302.933594 348.394531 293.9375 347.335938 286.699219 346.28125 Z M 286.699219 346.28125 " fill-opacity="1" fill-rule="evenodd"/><g clip-path="url(#1e24239e9a)"><path fill="#ffffff" d="M 405.320312 136.207031 C 380.621094 136.207031 360.792969 152.160156 360.792969 171.949219 L 360.792969 206.773438 C 360.792969 218.769531 348.125 219.332031 344.8125 207.371094 L 338.074219 183.125 C 308.226562 203.523438 289.246094 236.371094 286.460938 272.464844 C 270.691406 272.003906 259.574219 283.117188 259.574219 296.984375 C 259.574219 309.570312 265.535156 318.683594 276.117188 321.507812 C 285.289062 323.972656 332.355469 331.527344 405.320312 331.527344 C 478.285156 331.527344 525.351562 323.980469 534.515625 321.507812 C 545.070312 318.683594 551.066406 309.570312 551.066406 296.984375 C 551.066406 283.125 539.949219 272.003906 524.179688 272.464844 C 521.386719 236.371094 502.40625 203.523438 472.527344 183.125 L 465.820312 207.371094 C 462.472656 219.332031 449.804688 218.769531 449.804688 206.773438 L 449.804688 171.949219 C 449.804688 152.160156 429.984375 136.207031 405.320312 136.207031 Z M 405.320312 136.207031 " fill-opacity="1" fill-rule="evenodd"/></g><g clip-path="url(#d22481dfd5)"><path fill="#ffffff" d="M 258.476562 588.742188 L 552.128906 588.742188 L 552.128906 640.808594 C 509.539062 646.171875 443.425781 650.480469 405.320312 650.480469 C 367.175781 650.480469 301.09375 646.171875 258.476562 640.808594 Z M 480.261719 459.390625 L 412.730469 510.96875 C 408.246094 514.429688 402.25 514.429688 397.734375 510.96875 L 330.277344 459.464844 L 301.277344 471.109375 L 301.277344 561.644531 L 258.484375 561.644531 L 258.484375 488.289062 L 211.382812 507.152344 C 191.269531 515.203125 183.894531 525.929688 178.316406 542.648438 L 154.5 614.023438 C 149.527344 635.414062 160.007812 643.449219 169.601562 646.382812 C 210.421875 655.554688 326.109375 673.859375 405.320312 673.859375 C 484.496094 673.859375 600.179688 655.546875 641.03125 646.382812 C 650.597656 643.449219 661.078125 635.410156 656.105469 614.023438 L 632.289062 542.648438 C 626.710938 525.929688 619.335938 515.203125 599.222656 507.152344 L 552.128906 488.289062 L 552.128906 561.636719 L 509.363281 561.636719 L 509.363281 471.101562 Z M 480.261719 459.390625 " fill-opacity="1" fill-rule="nonzero"/></g></svg>