<svg xmlns="http://www.w3.org/2000/svg" xmlns:xlink="http://www.w3.org/1999/xlink" width="1080" zoomAndPan="magnify" viewBox="0 0 810 809.999993" height="1080" preserveAspectRatio="xMidYMid meet" version="1.0"><defs><clipPath id="a4caf4e33e"><path d="M 126.5625 0 L 683.4375 0 C 753.335938 0 810 56.664062 810 126.5625 L 810 683.4375 C 810 753.335938 753.335938 810 683.4375 810 L 126.5625 810 C 56.664062 810 0 753.335938 0 683.4375 L 0 126.5625 C 0 56.664062 56.664062 0 126.5625 0 Z M 126.5625 0 " clip-rule="nonzero"/></clipPath><clipPath id="05246e978b"><path d="M 121.5 234.898438 L 688.5 234.898438 L 688.5 575.398438 L 121.5 575.398438 Z M 121.5 234.898438 " clip-rule="nonzero"/></clipPath></defs><g clip-path="url(#a4caf4e33e)"><rect x="-81" width="972" fill="#8a8a8a" y="-80.999999" height="971.999992" fill-opacity="1"/></g><g clip-path="url(#05246e978b)"><path fill="#ffffff" d="M 631.796875 234.898438 L 178.203125 234.898438 C 136.605469 234.898438 121.503906 268.804688 121.503906 291.597656 L 121.503906 518.394531 C 121.503906 559.996094 155.410156 575.09375 178.203125 575.09375 L 631.796875 575.09375 C 673.394531 575.09375 688.496094 541.1875 688.496094 518.394531 L 688.496094 291.597656 C 688.496094 250 654.589844 234.898438 631.796875 234.898438 Z M 650.695312 518.167969 C 650.46875 526.902344 647.03125 537.296875 631.796875 537.296875 L 178.429688 537.296875 C 169.699219 537.070312 159.304688 533.628906 159.304688 518.394531 L 159.304688 291.824219 C 159.53125 283.09375 162.988281 272.699219 178.203125 272.699219 L 631.570312 272.699219 C 640.300781 272.925781 650.695312 276.386719 650.695312 291.597656 Z M 272.703125 461.695312 L 537.296875 461.695312 L 537.296875 499.496094 L 272.703125 499.496094 Z M 575.097656 461.695312 L 612.898438 461.695312 L 612.898438 499.496094 L 575.097656 499.496094 Z M 575.097656 386.097656 L 612.898438 386.097656 L 612.898438 423.898438 L 575.097656 423.898438 Z M 499.5 386.097656 L 537.296875 386.097656 L 537.296875 423.898438 L 499.5 423.898438 Z M 461.699219 423.898438 L 423.898438 423.898438 L 423.898438 386.097656 L 461.699219 386.097656 Z M 386.101562 423.898438 L 348.300781 423.898438 L 348.300781 386.097656 L 386.101562 386.097656 Z M 310.5 423.898438 L 272.703125 423.898438 L 272.703125 386.097656 L 310.5 386.097656 Z M 197.101562 386.097656 L 234.902344 386.097656 L 234.902344 423.898438 L 197.101562 423.898438 Z M 197.101562 461.695312 L 234.902344 461.695312 L 234.902344 499.496094 L 197.101562 499.496094 Z M 575.097656 310.5 L 612.898438 310.5 L 612.898438 348.296875 L 575.097656 348.296875 Z M 499.5 310.5 L 537.296875 310.5 L 537.296875 348.296875 L 499.5 348.296875 Z M 461.699219 348.296875 L 423.898438 348.296875 L 423.898438 310.5 L 461.699219 310.5 Z M 386.101562 348.296875 L 348.300781 348.296875 L 348.300781 310.5 L 386.101562 310.5 Z M 310.5 348.296875 L 272.703125 348.296875 L 272.703125 310.5 L 310.5 310.5 Z M 197.101562 310.5 L 234.902344 310.5 L 234.902344 348.296875 L 197.101562 348.296875 Z M 197.101562 310.5 " fill-opacity="1" fill-rule="nonzero"/></g></svg>