<svg xmlns="http://www.w3.org/2000/svg" xmlns:xlink="http://www.w3.org/1999/xlink" width="1080" zoomAndPan="magnify" viewBox="0 0 810 809.999993" height="1080" preserveAspectRatio="xMidYMid meet" version="1.0"><defs><clipPath id="06570a918b"><path d="M 126.5625 0 L 683.4375 0 C 753.335938 0 810 56.664062 810 126.5625 L 810 683.4375 C 810 753.335938 753.335938 810 683.4375 810 L 126.5625 810 C 56.664062 810 0 753.335938 0 683.4375 L 0 126.5625 C 0 56.664062 56.664062 0 126.5625 0 Z M 126.5625 0 " clip-rule="nonzero"/></clipPath></defs><g clip-path="url(#06570a918b)"><rect x="-81" width="972" fill="#8a8a8a" y="-80.999999" height="971.999992" fill-opacity="1"/></g><path fill="#ffffff" d="M 267.433594 264.148438 C 268.269531 263.214844 269.058594 262.238281 269.800781 261.230469 C 270.542969 260.21875 271.234375 259.171875 271.875 258.097656 C 272.515625 257.019531 273.105469 255.914062 273.640625 254.78125 C 274.179688 253.648438 274.660156 252.488281 275.085938 251.308594 C 275.511719 250.132812 275.878906 248.933594 276.191406 247.71875 C 276.5 246.503906 276.753906 245.277344 276.949219 244.039062 C 277.140625 242.800781 277.277344 241.554688 277.351562 240.300781 C 277.425781 239.050781 277.441406 237.796875 277.394531 236.542969 C 277.351562 235.292969 277.246094 234.042969 277.082031 232.800781 C 276.917969 231.558594 276.695312 230.324219 276.410156 229.101562 C 276.128906 227.882812 275.789062 226.675781 275.390625 225.484375 C 274.992188 224.296875 274.539062 223.128906 274.03125 221.984375 C 273.523438 220.835938 272.960938 219.71875 272.34375 218.625 C 271.726562 217.535156 271.058594 216.472656 270.34375 215.445312 C 269.625 214.417969 268.859375 213.425781 268.046875 212.46875 C 267.234375 211.515625 266.378906 210.601562 265.480469 209.726562 L 238.714844 182.964844 C 237.785156 182.027344 237.011719 180.972656 236.394531 179.808594 C 235.777344 178.640625 235.339844 177.410156 235.085938 176.113281 C 234.832031 174.820312 234.769531 173.515625 234.898438 172.203125 C 235.03125 170.886719 235.347656 169.621094 235.855469 168.402344 C 236.359375 167.183594 237.03125 166.0625 237.867188 165.042969 C 238.703125 164.019531 239.671875 163.140625 240.765625 162.40625 C 241.863281 161.671875 243.042969 161.109375 244.304688 160.722656 C 245.566406 160.335938 246.855469 160.140625 248.175781 160.132812 C 249.945312 160.097656 251.710938 160.117188 253.476562 160.1875 C 255.242188 160.257812 257.003906 160.382812 258.761719 160.558594 C 260.519531 160.738281 262.269531 160.964844 264.015625 161.25 C 265.761719 161.53125 267.496094 161.867188 269.21875 162.253906 C 270.941406 162.640625 272.652344 163.082031 274.351562 163.570312 C 276.050781 164.0625 277.730469 164.601562 279.394531 165.195312 C 281.0625 165.785156 282.707031 166.425781 284.332031 167.117188 C 285.960938 167.808594 287.5625 168.550781 289.144531 169.335938 C 290.726562 170.125 292.285156 170.957031 293.816406 171.839844 C 295.347656 172.722656 296.851562 173.648438 298.328125 174.621094 C 299.804688 175.59375 301.25 176.609375 302.664062 177.667969 C 304.078125 178.726562 305.457031 179.828125 306.808594 180.972656 C 308.15625 182.113281 309.46875 183.296875 310.746094 184.515625 C 312.019531 185.738281 313.261719 186.996094 314.460938 188.292969 C 315.664062 189.589844 316.824219 190.921875 317.945312 192.289062 C 319.066406 193.652344 320.144531 195.054688 321.179688 196.484375 C 322.214844 197.914062 323.207031 199.375 324.15625 200.867188 C 325.105469 202.359375 326.007812 203.878906 326.863281 205.421875 C 327.722656 206.96875 328.53125 208.539062 329.292969 210.132812 C 330.054688 211.726562 330.769531 213.34375 331.433594 214.980469 C 332.097656 216.617188 332.714844 218.273438 333.28125 219.949219 C 333.84375 221.621094 334.359375 223.3125 334.820312 225.019531 C 335.285156 226.722656 335.695312 228.441406 336.054688 230.171875 C 336.414062 231.902344 336.722656 233.640625 336.976562 235.390625 C 337.230469 237.136719 337.433594 238.894531 337.582031 240.652344 C 337.730469 242.414062 337.828125 244.179688 337.871094 245.945312 C 337.914062 247.710938 337.902344 249.476562 337.839844 251.246094 C 337.777344 253.011719 337.660156 254.773438 337.488281 256.53125 C 337.320312 258.289062 337.097656 260.042969 336.820312 261.789062 C 336.542969 263.535156 336.214844 265.269531 335.835938 266.996094 C 335.457031 268.722656 335.023438 270.433594 334.539062 272.132812 C 334.058594 273.832031 333.523438 275.515625 332.9375 277.183594 L 404.4375 348.683594 L 370.792969 382.328125 L 358.636719 370.171875 C 357.96875 369.507812 357.277344 368.878906 356.550781 368.28125 C 355.824219 367.6875 355.070312 367.128906 354.289062 366.609375 C 353.507812 366.085938 352.703125 365.605469 351.875 365.164062 C 351.046875 364.71875 350.199219 364.320312 349.332031 363.960938 C 348.464844 363.601562 347.582031 363.285156 346.683594 363.015625 C 345.785156 362.742188 344.875 362.515625 343.953125 362.332031 C 343.035156 362.148438 342.105469 362.011719 341.171875 361.917969 C 340.238281 361.828125 339.300781 361.78125 338.363281 361.78125 C 337.421875 361.78125 336.488281 361.828125 335.550781 361.921875 C 334.617188 362.011719 333.691406 362.152344 332.769531 362.335938 C 331.847656 362.515625 330.9375 362.746094 330.039062 363.019531 C 329.144531 363.289062 328.261719 363.605469 327.390625 363.964844 C 326.523438 364.324219 325.675781 364.726562 324.847656 365.167969 C 324.023438 365.613281 323.21875 366.09375 322.4375 366.617188 C 321.65625 367.136719 320.902344 367.695312 320.175781 368.292969 C 319.453125 368.886719 318.757812 369.515625 318.09375 370.179688 L 317.878906 370.394531 L 278.859375 331.371094 C 277.183594 331.960938 275.492188 332.496094 273.78125 332.980469 C 272.074219 333.464844 270.351562 333.898438 268.617188 334.277344 C 266.882812 334.660156 265.140625 334.988281 263.386719 335.261719 C 261.628906 335.535156 259.871094 335.757812 258.101562 335.925781 C 256.335938 336.097656 254.5625 336.210938 252.789062 336.273438 C 251.015625 336.332031 249.238281 336.339844 247.464844 336.292969 C 245.6875 336.25 243.917969 336.148438 242.148438 335.996094 C 240.378906 335.84375 238.617188 335.636719 236.859375 335.375 C 235.101562 335.113281 233.355469 334.800781 231.617188 334.4375 C 229.878906 334.070312 228.15625 333.652344 226.441406 333.183594 C 224.730469 332.710938 223.035156 332.191406 221.355469 331.617188 C 219.671875 331.042969 218.011719 330.421875 216.367188 329.746094 C 214.726562 329.074219 213.105469 328.351562 211.503906 327.582031 C 209.90625 326.808594 208.332031 325.988281 206.78125 325.121094 C 205.230469 324.253906 203.710938 323.34375 202.214844 322.382812 C 200.71875 321.425781 199.257812 320.421875 197.824219 319.375 C 196.390625 318.324219 194.988281 317.234375 193.621094 316.105469 C 192.253906 314.972656 190.921875 313.796875 189.625 312.585938 C 188.328125 311.371094 187.066406 310.121094 185.847656 308.832031 C 184.625 307.542969 183.445312 306.21875 182.304688 304.855469 C 181.164062 303.496094 180.066406 302.101562 179.007812 300.675781 C 177.953125 299.246094 176.9375 297.789062 175.972656 296.300781 C 175.003906 294.8125 174.082031 293.296875 173.203125 291.753906 C 172.328125 290.207031 171.5 288.636719 170.71875 287.042969 C 169.9375 285.449219 169.203125 283.832031 168.519531 282.195312 C 167.835938 280.554688 167.203125 278.898438 166.621094 277.21875 C 166.035156 275.542969 165.503906 273.847656 165.023438 272.140625 C 164.542969 270.429688 164.113281 268.707031 163.738281 266.972656 C 163.359375 265.238281 163.035156 263.492188 162.765625 261.738281 C 162.496094 259.984375 162.277344 258.222656 162.113281 256.453125 C 161.949219 254.683594 161.839844 252.914062 161.78125 251.140625 C 161.722656 249.363281 161.71875 247.589844 161.769531 245.8125 C 161.835938 244.523438 162.082031 243.265625 162.511719 242.046875 C 162.941406 240.824219 163.535156 239.691406 164.292969 238.644531 C 165.054688 237.59375 165.945312 236.675781 166.972656 235.890625 C 168 235.101562 169.117188 234.476562 170.324219 234.015625 C 171.535156 233.550781 172.78125 233.269531 174.074219 233.171875 C 175.363281 233.074219 176.640625 233.160156 177.90625 233.433594 C 179.171875 233.707031 180.371094 234.152344 181.503906 234.773438 C 182.640625 235.394531 183.660156 236.167969 184.574219 237.085938 L 212.480469 264.996094 C 213.382812 265.898438 214.332031 266.753906 215.320312 267.5625 C 216.3125 268.371094 217.339844 269.128906 218.402344 269.835938 C 219.46875 270.542969 220.566406 271.195312 221.699219 271.789062 C 222.828125 272.386719 223.988281 272.921875 225.171875 273.402344 C 226.355469 273.882812 227.5625 274.304688 228.789062 274.664062 C 230.015625 275.023438 231.257812 275.320312 232.511719 275.554688 C 233.769531 275.789062 235.035156 275.960938 236.308594 276.070312 C 237.582031 276.175781 238.859375 276.222656 240.136719 276.203125 C 241.414062 276.183594 242.6875 276.097656 243.957031 275.949219 C 245.226562 275.804688 246.488281 275.59375 247.734375 275.320312 C 248.984375 275.046875 250.214844 274.710938 251.429688 274.316406 C 252.648438 273.917969 253.839844 273.460938 255.007812 272.945312 C 256.175781 272.429688 257.316406 271.855469 258.429688 271.222656 C 259.542969 270.59375 260.621094 269.910156 261.664062 269.171875 C 262.707031 268.433594 263.710938 267.644531 264.675781 266.804688 C 265.640625 265.964844 266.558594 265.082031 267.433594 264.148438 Z M 644.445312 586.429688 C 644.109375 587.691406 643.742188 588.945312 643.34375 590.1875 C 642.945312 591.433594 642.515625 592.664062 642.054688 593.886719 C 641.597656 595.109375 641.109375 596.320312 640.589844 597.519531 C 640.070312 598.71875 639.523438 599.90625 638.949219 601.078125 C 638.371094 602.25 637.765625 603.40625 637.132812 604.546875 C 636.5 605.691406 635.839844 606.816406 635.148438 607.925781 C 634.460938 609.035156 633.746094 610.128906 633.003906 611.203125 C 632.261719 612.277344 631.492188 613.332031 630.699219 614.371094 C 629.902344 615.40625 629.082031 616.421875 628.238281 617.417969 C 627.394531 618.417969 626.527344 619.390625 625.632812 620.34375 C 624.742188 621.300781 623.828125 622.230469 622.890625 623.140625 C 621.953125 624.050781 620.992188 624.933594 620.011719 625.796875 C 619.027344 626.65625 618.027344 627.496094 617.003906 628.308594 C 615.980469 629.121094 614.941406 629.90625 613.878906 630.667969 C 612.816406 631.429688 611.738281 632.164062 610.640625 632.875 C 609.542969 633.582031 608.429688 634.261719 607.296875 634.917969 C 606.167969 635.570312 605.023438 636.195312 603.859375 636.792969 C 602.699219 637.390625 601.523438 637.957031 600.332031 638.5 C 599.144531 639.039062 597.941406 639.546875 596.726562 640.027344 C 595.511719 640.507812 594.289062 640.960938 593.050781 641.378906 C 591.816406 641.800781 590.566406 642.191406 589.3125 642.550781 C 588.058594 642.90625 586.792969 643.234375 585.519531 643.53125 C 584.25 643.832031 582.96875 644.097656 581.6875 644.328125 C 580.402344 644.5625 579.109375 644.765625 577.816406 644.9375 C 576.519531 645.109375 575.222656 645.246094 573.921875 645.355469 C 572.621094 645.460938 571.316406 645.535156 570.011719 645.578125 C 568.703125 645.621094 567.398438 645.632812 566.09375 645.613281 C 564.789062 645.589844 563.484375 645.539062 562.179688 645.453125 C 560.875 645.367188 559.574219 645.25 558.277344 645.101562 C 556.980469 644.953125 555.6875 644.769531 554.398438 644.558594 C 553.109375 644.34375 551.828125 644.101562 550.550781 643.824219 C 549.273438 643.550781 548.003906 643.242188 546.742188 642.90625 C 545.480469 642.566406 544.230469 642.199219 542.984375 641.796875 C 541.742188 641.398438 540.507812 640.96875 539.285156 640.507812 C 538.0625 640.046875 536.855469 639.558594 535.65625 639.039062 C 534.457031 638.519531 533.273438 637.972656 532.101562 637.394531 C 530.929688 636.816406 529.773438 636.210938 528.632812 635.574219 C 527.488281 634.941406 526.363281 634.277344 525.253906 633.585938 C 524.148438 632.898438 523.054688 632.179688 521.980469 631.4375 C 520.90625 630.695312 519.851562 629.925781 518.816406 629.128906 C 517.78125 628.332031 516.765625 627.511719 515.769531 626.667969 C 514.773438 625.824219 513.800781 624.953125 512.847656 624.058594 C 511.894531 623.167969 510.960938 622.25 510.054688 621.3125 C 509.144531 620.375 508.261719 619.414062 507.402344 618.429688 C 506.539062 617.449219 505.703125 616.445312 504.894531 615.421875 C 504.082031 614.398438 503.296875 613.355469 502.535156 612.292969 C 501.773438 611.230469 501.039062 610.152344 500.332031 609.054688 C 499.625 607.957031 498.945312 606.839844 498.292969 605.707031 C 497.640625 604.578125 497.015625 603.429688 496.421875 602.269531 C 495.824219 601.105469 495.257812 599.929688 494.71875 598.742188 C 494.179688 597.550781 493.671875 596.347656 493.191406 595.132812 C 492.714844 593.917969 492.265625 592.691406 491.84375 591.453125 C 491.425781 590.21875 491.039062 588.972656 490.679688 587.714844 C 490.324219 586.457031 489.996094 585.195312 489.699219 583.921875 C 489.40625 582.648438 489.140625 581.371094 488.90625 580.085938 C 488.675781 578.800781 488.472656 577.511719 488.304688 576.214844 C 488.132812 574.921875 487.996094 573.621094 487.890625 572.320312 C 487.785156 571.019531 487.710938 569.714844 487.671875 568.410156 C 487.628906 567.105469 487.617188 565.796875 487.640625 564.492188 C 487.664062 563.1875 487.71875 561.882812 487.804688 560.578125 C 487.890625 559.273438 488.011719 557.976562 488.160156 556.675781 C 488.3125 555.378906 488.492188 554.085938 488.707031 552.796875 C 488.921875 551.511719 489.167969 550.226562 489.445312 548.953125 C 489.722656 547.675781 490.027344 546.40625 490.367188 545.144531 C 490.523438 544.558594 490.75 544.011719 490.921875 543.433594 L 436.886719 489.402344 L 437.101562 489.1875 C 437.761719 488.523438 438.390625 487.828125 438.988281 487.101562 C 439.582031 486.375 440.140625 485.621094 440.660156 484.839844 C 441.179688 484.058594 441.660156 483.253906 442.101562 482.425781 C 442.546875 481.597656 442.945312 480.75 443.304688 479.882812 C 443.664062 479.015625 443.976562 478.132812 444.25 477.234375 C 444.523438 476.335938 444.75 475.425781 444.933594 474.503906 C 445.113281 473.582031 445.253906 472.65625 445.34375 471.722656 C 445.4375 470.789062 445.480469 469.851562 445.480469 468.910156 C 445.480469 467.972656 445.4375 467.035156 445.34375 466.101562 C 445.253906 465.167969 445.113281 464.242188 444.933594 463.320312 C 444.75 462.398438 444.523438 461.488281 444.25 460.589844 C 443.976562 459.691406 443.664062 458.808594 443.304688 457.941406 C 442.945312 457.074219 442.546875 456.226562 442.101562 455.398438 C 441.660156 454.570312 441.179688 453.765625 440.660156 452.984375 C 440.140625 452.203125 439.582031 451.449219 438.988281 450.722656 C 438.390625 449.996094 437.761719 449.300781 437.101562 448.636719 L 424.949219 436.488281 L 458.59375 402.84375 L 545.0625 489.308594 C 548.441406 488.3125 551.875 487.546875 555.355469 487.007812 C 558.835938 486.46875 562.339844 486.160156 565.859375 486.085938 C 569.382812 486.011719 572.894531 486.167969 576.394531 486.558594 C 579.898438 486.949219 583.355469 487.570312 586.777344 488.421875 C 590.195312 489.273438 593.542969 490.34375 596.820312 491.640625 C 600.097656 492.933594 603.273438 494.4375 606.351562 496.15625 C 609.425781 497.871094 612.375 499.785156 615.199219 501.890625 C 618.023438 504 620.695312 506.285156 623.214844 508.746094 C 625.734375 511.210938 628.078125 513.828125 630.25 516.601562 C 632.421875 519.375 634.402344 522.28125 636.191406 525.316406 C 637.976562 528.351562 639.554688 531.492188 640.925781 534.738281 C 642.292969 537.984375 643.445312 541.308594 644.371094 544.707031 C 645.300781 548.105469 646 551.550781 646.472656 555.042969 C 646.945312 558.53125 647.183594 562.039062 647.1875 565.5625 C 647.195312 569.085938 646.96875 572.59375 646.507812 576.085938 C 646.050781 579.582031 645.363281 583.027344 644.445312 586.429688 Z M 623.519531 550.75 L 582.441406 509.675781 L 526.328125 524.710938 L 511.292969 580.824219 L 552.371094 621.898438 L 608.484375 606.863281 Z M 645.582031 175.976562 C 646.011719 176.40625 646.359375 176.894531 646.625 177.445312 C 646.890625 177.996094 647.058594 178.570312 647.128906 179.179688 C 647.195312 179.785156 647.164062 180.382812 647.03125 180.980469 C 646.894531 181.574219 646.667969 182.128906 646.34375 182.648438 L 599.320312 258.015625 C 598.894531 258.695312 598.347656 259.265625 597.683594 259.71875 C 597.019531 260.171875 596.292969 260.476562 595.5 260.625 L 568.21875 265.757812 L 397.488281 436.488281 L 423.367188 462.367188 C 423.796875 462.796875 424.179688 463.265625 424.519531 463.769531 C 424.855469 464.273438 425.140625 464.808594 425.375 465.371094 C 425.605469 465.933594 425.78125 466.511719 425.902344 467.105469 C 426.019531 467.703125 426.078125 468.304688 426.078125 468.914062 C 426.078125 469.523438 426.019531 470.125 425.902344 470.71875 C 425.78125 471.316406 425.605469 471.894531 425.375 472.457031 C 425.140625 473.019531 424.855469 473.550781 424.519531 474.058594 C 424.179688 474.5625 423.796875 475.03125 423.367188 475.460938 L 413.992188 484.835938 C 413.398438 485.398438 412.726562 485.851562 411.980469 486.195312 C 411.234375 486.535156 410.453125 486.75 409.636719 486.832031 C 408.820312 486.914062 408.011719 486.863281 407.210938 486.675781 C 406.414062 486.492188 405.664062 486.179688 404.96875 485.746094 C 403.949219 485.167969 402.886719 484.675781 401.785156 484.269531 C 400.6875 483.863281 399.558594 483.550781 398.40625 483.328125 C 397.257812 483.105469 396.09375 482.976562 394.921875 482.945312 C 393.75 482.910156 392.582031 482.972656 391.417969 483.132812 C 390.257812 483.289062 389.113281 483.539062 387.992188 483.882812 C 386.871094 484.226562 385.785156 484.660156 384.734375 485.179688 C 383.683594 485.699219 382.679688 486.304688 381.726562 486.988281 C 380.773438 487.671875 379.882812 488.429688 379.054688 489.257812 C 378.222656 490.085938 377.464844 490.980469 376.78125 491.933594 C 376.097656 492.886719 375.496094 493.886719 374.976562 494.9375 C 374.453125 495.988281 374.023438 497.074219 373.679688 498.199219 C 373.335938 499.320312 373.082031 500.460938 372.925781 501.625 C 372.769531 502.785156 372.707031 503.953125 372.738281 505.125 C 372.773438 506.300781 372.898438 507.460938 373.121094 508.613281 C 373.34375 509.765625 373.660156 510.890625 374.066406 511.992188 C 374.46875 513.09375 374.964844 514.152344 375.542969 515.171875 C 375.976562 515.871094 376.285156 516.617188 376.472656 517.417969 C 376.65625 518.21875 376.707031 519.023438 376.625 519.839844 C 376.542969 520.65625 376.332031 521.4375 375.988281 522.183594 C 375.648438 522.929688 375.195312 523.601562 374.628906 524.199219 L 272.246094 626.582031 C 271.496094 627.332031 270.730469 628.0625 269.945312 628.777344 C 269.160156 629.488281 268.359375 630.183594 267.539062 630.855469 C 266.722656 631.527344 265.886719 632.183594 265.035156 632.8125 C 264.183594 633.445312 263.316406 634.058594 262.4375 634.648438 C 261.554688 635.238281 260.660156 635.804688 259.753906 636.351562 C 258.84375 636.898438 257.921875 637.417969 256.988281 637.921875 C 256.054688 638.421875 255.105469 638.898438 254.148438 639.351562 C 253.191406 639.804688 252.222656 640.238281 251.242188 640.644531 C 250.265625 641.050781 249.277344 641.429688 248.277344 641.789062 C 247.28125 642.148438 246.273438 642.480469 245.257812 642.789062 C 244.246094 643.097656 243.222656 643.378906 242.195312 643.640625 C 241.167969 643.898438 240.132812 644.128906 239.09375 644.335938 C 238.054688 644.546875 237.011719 644.726562 235.960938 644.882812 C 234.914062 645.039062 233.859375 645.167969 232.804688 645.273438 C 231.75 645.378906 230.695312 645.457031 229.636719 645.511719 C 228.578125 645.5625 227.515625 645.589844 226.457031 645.589844 C 225.398438 645.589844 224.335938 645.566406 223.277344 645.511719 C 222.21875 645.460938 221.164062 645.382812 220.109375 645.28125 C 219.050781 645.175781 218 645.046875 216.953125 644.894531 C 215.902344 644.738281 214.859375 644.558594 213.820312 644.351562 C 212.777344 644.144531 211.746094 643.914062 210.714844 643.65625 C 209.6875 643.398438 208.667969 643.117188 207.652344 642.808594 C 206.636719 642.5 205.632812 642.167969 204.632812 641.8125 C 203.632812 641.453125 202.644531 641.074219 201.667969 640.667969 C 200.6875 640.261719 199.71875 639.832031 198.757812 639.378906 C 197.800781 638.925781 196.855469 638.453125 195.917969 637.953125 C 194.984375 637.453125 194.0625 636.929688 193.152344 636.386719 C 192.242188 635.839844 191.347656 635.273438 190.464844 634.683594 C 189.585938 634.09375 188.71875 633.484375 187.867188 632.855469 C 187.015625 632.222656 186.179688 631.570312 185.359375 630.898438 C 184.539062 630.226562 183.738281 629.535156 182.953125 628.820312 C 182.167969 628.109375 181.398438 627.378906 180.648438 626.628906 C 179.898438 625.878906 179.167969 625.113281 178.457031 624.328125 C 177.746094 623.539062 177.050781 622.738281 176.378906 621.917969 C 175.707031 621.097656 175.054688 620.265625 174.425781 619.414062 C 173.792969 618.5625 173.183594 617.695312 172.59375 616.8125 C 172.003906 615.929688 171.4375 615.035156 170.894531 614.125 C 170.347656 613.214844 169.824219 612.292969 169.328125 611.359375 C 168.828125 610.425781 168.351562 609.476562 167.898438 608.519531 C 167.445312 607.5625 167.015625 606.589844 166.609375 605.613281 C 166.203125 604.632812 165.824219 603.644531 165.464844 602.644531 C 165.109375 601.648438 164.777344 600.640625 164.46875 599.625 C 164.164062 598.613281 163.878906 597.589844 163.625 596.5625 C 163.367188 595.53125 163.132812 594.5 162.925781 593.460938 C 162.722656 592.417969 162.539062 591.375 162.386719 590.324219 C 162.230469 589.277344 162.101562 588.226562 161.996094 587.171875 C 161.894531 586.117188 161.816406 585.058594 161.765625 584 C 161.714844 582.941406 161.6875 581.882812 161.6875 580.820312 C 161.6875 579.761719 161.714844 578.703125 161.769531 577.640625 C 161.820312 576.582031 161.898438 575.527344 162.003906 574.472656 C 162.109375 573.417969 162.238281 572.363281 162.394531 571.316406 C 162.550781 570.269531 162.734375 569.222656 162.941406 568.183594 C 163.148438 567.144531 163.382812 566.109375 163.640625 565.082031 C 163.898438 564.054688 164.179688 563.03125 164.488281 562.019531 C 164.796875 561.003906 165.132812 560 165.488281 559 C 165.847656 558.003906 166.230469 557.015625 166.636719 556.035156 C 167.042969 555.054688 167.472656 554.085938 167.925781 553.128906 C 168.378906 552.171875 168.859375 551.226562 169.359375 550.289062 C 169.859375 549.355469 170.382812 548.433594 170.929688 547.527344 C 171.472656 546.617188 172.042969 545.722656 172.632812 544.839844 C 173.222656 543.960938 173.832031 543.09375 174.464844 542.242188 C 175.097656 541.390625 175.75 540.558594 176.421875 539.738281 C 177.097656 538.917969 177.789062 538.117188 178.503906 537.332031 C 179.214844 536.546875 179.945312 535.78125 180.695312 535.03125 L 283.082031 432.648438 C 283.675781 432.085938 284.347656 431.632812 285.09375 431.289062 C 285.839844 430.949219 286.621094 430.734375 287.4375 430.652344 C 288.253906 430.570312 289.0625 430.621094 289.859375 430.808594 C 290.660156 430.992188 291.410156 431.300781 292.105469 431.738281 C 293.125 432.316406 294.1875 432.808594 295.285156 433.214844 C 296.386719 433.621094 297.515625 433.933594 298.664062 434.15625 C 299.816406 434.378906 300.980469 434.507812 302.152344 434.539062 C 303.324219 434.570312 304.492188 434.507812 305.65625 434.351562 C 306.816406 434.195312 307.960938 433.945312 309.082031 433.601562 C 310.203125 433.257812 311.289062 432.824219 312.339844 432.304688 C 313.390625 431.78125 314.394531 431.179688 315.347656 430.496094 C 316.300781 429.8125 317.191406 429.054688 318.019531 428.226562 C 318.851562 427.394531 319.605469 426.503906 320.289062 425.550781 C 320.976562 424.597656 321.578125 423.597656 322.097656 422.546875 C 322.621094 421.496094 323.050781 420.410156 323.394531 419.285156 C 323.738281 418.164062 323.988281 417.023438 324.148438 415.859375 C 324.304688 414.699219 324.367188 413.53125 324.335938 412.359375 C 324.300781 411.183594 324.171875 410.023438 323.953125 408.871094 C 323.730469 407.71875 323.414062 406.59375 323.007812 405.492188 C 322.601562 404.390625 322.109375 403.332031 321.53125 402.3125 C 321.097656 401.613281 320.789062 400.867188 320.601562 400.066406 C 320.417969 399.265625 320.363281 398.460938 320.449219 397.640625 C 320.53125 396.824219 320.742188 396.042969 321.085938 395.296875 C 321.425781 394.550781 321.878906 393.882812 322.445312 393.285156 L 331.816406 383.910156 C 332.246094 383.480469 332.714844 383.097656 333.222656 382.761719 C 333.726562 382.421875 334.261719 382.136719 334.820312 381.90625 C 335.382812 381.671875 335.960938 381.496094 336.558594 381.378906 C 337.15625 381.257812 337.757812 381.199219 338.363281 381.199219 C 338.972656 381.199219 339.574219 381.257812 340.171875 381.378906 C 340.765625 381.496094 341.347656 381.671875 341.90625 381.902344 C 342.46875 382.136719 343.003906 382.421875 343.507812 382.757812 C 344.015625 383.097656 344.480469 383.480469 344.910156 383.910156 L 370.792969 409.789062 L 541.519531 239.0625 L 546.65625 211.777344 C 546.804688 210.988281 547.105469 210.261719 547.558594 209.59375 C 548.011719 208.929688 548.582031 208.386719 549.265625 207.960938 L 624.632812 160.933594 C 625.148438 160.613281 625.703125 160.382812 626.300781 160.25 C 626.894531 160.113281 627.496094 160.082031 628.101562 160.152344 C 628.707031 160.222656 629.285156 160.386719 629.832031 160.652344 C 630.382812 160.917969 630.871094 161.265625 631.304688 161.699219 Z M 193.246094 598.777344 L 310.523438 481.5 L 291.449219 462.425781 L 199.765625 554.105469 C 198.335938 555.53125 197.03125 557.066406 195.847656 558.703125 C 194.667969 560.34375 193.621094 562.066406 192.714844 563.871094 C 191.8125 565.675781 191.054688 567.542969 190.449219 569.472656 C 189.839844 571.398438 189.390625 573.359375 189.101562 575.359375 C 188.808594 577.359375 188.679688 579.371094 188.707031 581.390625 C 188.738281 583.410156 188.929688 585.414062 189.28125 587.402344 C 189.636719 589.394531 190.144531 591.34375 190.808594 593.25 C 191.472656 595.15625 192.285156 597 193.246094 598.777344 Z M 344.859375 515.835938 L 325.777344 496.753906 L 208.5 614.03125 C 210.277344 614.992188 212.121094 615.804688 214.027344 616.46875 C 215.9375 617.136719 217.886719 617.644531 219.875 617.996094 C 221.863281 618.347656 223.871094 618.539062 225.890625 618.570312 C 227.910156 618.601562 229.921875 618.46875 231.921875 618.179688 C 233.921875 617.886719 235.882812 617.4375 237.8125 616.832031 C 239.738281 616.222656 241.605469 615.46875 243.410156 614.5625 C 245.21875 613.65625 246.941406 612.613281 248.578125 611.429688 C 250.21875 610.246094 251.75 608.941406 253.179688 607.511719 Z M 344.859375 515.835938 " fill-opacity="1" fill-rule="nonzero"/></svg>