<svg xmlns="http://www.w3.org/2000/svg" xmlns:xlink="http://www.w3.org/1999/xlink" width="1080" zoomAndPan="magnify" viewBox="0 0 810 809.999993" height="1080" preserveAspectRatio="xMidYMid meet" version="1.0"><defs><clipPath id="af1733f486"><path d="M 126.5625 0 L 683.4375 0 C 753.335938 0 810 56.664062 810 126.5625 L 810 683.4375 C 810 753.335938 753.335938 810 683.4375 810 L 126.5625 810 C 56.664062 810 0 753.335938 0 683.4375 L 0 126.5625 C 0 56.664062 56.664062 0 126.5625 0 Z M 126.5625 0 " clip-rule="nonzero"/></clipPath><clipPath id="285883ca60"><path d="M 207.160156 139.929688 L 642.054688 139.929688 L 642.054688 670.058594 L 207.160156 670.058594 Z M 207.160156 139.929688 " clip-rule="nonzero"/></clipPath></defs><g clip-path="url(#af1733f486)"><rect x="-81" width="972" fill="#8a8a8a" y="-80.999999" height="971.999992" fill-opacity="1"/></g><g clip-path="url(#285883ca60)"><path fill="#ffffff" d="M 282.980469 564.410156 C 270.945312 564.410156 261.175781 574.171875 261.175781 586.214844 L 261.175781 587.667969 C 261.175781 599.710938 270.945312 609.476562 282.980469 609.476562 C 295.039062 609.476562 304.785156 599.710938 304.785156 587.667969 L 304.785156 586.214844 C 304.785156 574.171875 295.039062 564.410156 282.980469 564.410156 Z M 590.617188 515.515625 C 586.855469 515.394531 583.03125 516.703125 580.070312 519.484375 L 527.710938 568.480469 L 503.042969 545.394531 C 497.097656 539.839844 487.777344 540.148438 482.21875 546.085938 C 476.660156 552.027344 476.964844 561.34375 482.914062 566.902344 L 517.0625 598.855469 C 520.027344 601.632812 523.847656 602.945312 527.609375 602.820312 L 527.710938 602.808594 L 527.8125 602.820312 C 531.574219 602.945312 535.394531 601.632812 538.359375 598.855469 L 600.199219 540.988281 C 606.148438 535.429688 606.453125 526.113281 600.894531 520.171875 C 598.117188 517.203125 594.394531 515.640625 590.617188 515.515625 Z M 282.980469 471.144531 C 270.945312 471.144531 261.175781 480.910156 261.175781 492.953125 L 261.175781 494.402344 C 261.175781 506.449219 270.945312 516.210938 282.980469 516.210938 C 295.039062 516.210938 304.785156 506.449219 304.785156 494.402344 L 304.785156 492.953125 C 304.785156 480.910156 295.039062 471.144531 282.980469 471.144531 Z M 541.546875 458.679688 C 597.054688 458.679688 642.054688 503.671875 642.054688 559.171875 C 642.054688 614.667969 597.054688 659.660156 541.546875 659.660156 C 486.0625 659.660156 441.058594 614.667969 441.058594 559.171875 C 441.058594 503.671875 486.0625 458.679688 541.546875 458.679688 Z M 333.480469 408.734375 C 329.230469 408.734375 325.773438 412.179688 325.773438 416.429688 C 325.773438 420.679688 329.230469 424.125 333.480469 424.125 L 512.875 424.125 C 516.0625 424.125 518.800781 422.1875 519.964844 419.425781 L 520.578125 416.429688 L 519.964844 413.4375 C 518.800781 410.671875 516.0625 408.734375 512.875 408.734375 Z M 282.980469 377.882812 C 270.945312 377.882812 261.175781 387.648438 261.175781 399.691406 L 261.175781 401.140625 C 261.175781 413.1875 270.945312 422.949219 282.980469 422.949219 C 295.039062 422.949219 304.785156 413.1875 304.785156 401.140625 L 304.785156 399.691406 C 304.785156 387.648438 295.039062 377.882812 282.980469 377.882812 Z M 333.480469 376.703125 C 329.230469 376.703125 325.773438 380.148438 325.773438 384.402344 C 325.773438 388.648438 329.230469 392.09375 333.480469 392.09375 L 471.40625 392.09375 C 474.597656 392.09375 477.335938 390.15625 478.5 387.394531 L 479.113281 384.402344 L 478.5 381.40625 C 477.335938 378.644531 474.597656 376.703125 471.40625 376.703125 Z M 333.480469 315.472656 C 329.230469 315.472656 325.773438 318.917969 325.773438 323.167969 C 325.773438 327.417969 329.230469 330.863281 333.480469 330.863281 L 512.875 330.863281 C 516.0625 330.863281 518.800781 328.921875 519.964844 326.164062 L 520.578125 323.167969 L 519.964844 320.171875 C 518.800781 317.410156 516.0625 315.472656 512.875 315.472656 Z M 282.980469 284.617188 C 270.945312 284.617188 261.175781 294.382812 261.175781 306.425781 L 261.175781 307.878906 C 261.175781 319.921875 270.945312 329.6875 282.980469 329.6875 C 295.039062 329.6875 304.785156 319.921875 304.785156 307.878906 L 304.785156 306.425781 C 304.785156 294.382812 295.039062 284.617188 282.980469 284.617188 Z M 333.480469 283.441406 C 329.230469 283.441406 325.773438 286.886719 325.773438 291.136719 C 325.773438 295.386719 329.230469 298.832031 333.480469 298.832031 L 471.40625 298.832031 C 474.597656 298.832031 477.335938 296.894531 478.5 294.132812 L 479.113281 291.136719 L 478.5 288.140625 C 477.335938 285.378906 474.597656 283.441406 471.40625 283.441406 Z M 217.257812 181.335938 L 286.332031 181.335938 L 286.167969 182.828125 L 286.167969 205.410156 C 286.167969 224 301.25 239.070312 319.828125 239.070312 L 461.925781 239.070312 C 480.503906 239.070312 495.585938 224 495.585938 205.410156 L 495.585938 182.828125 L 495.421875 181.335938 L 564.496094 181.335938 C 570.078125 181.335938 574.59375 185.855469 574.59375 191.429688 L 574.59375 440.789062 L 566.335938 438.667969 C 558.347656 437.03125 550.046875 436.167969 541.546875 436.167969 C 511.832031 436.167969 484.570312 446.710938 463.316406 464.257812 L 457.019531 469.96875 L 333.480469 469.96875 C 329.230469 469.96875 325.773438 473.414062 325.773438 477.664062 C 325.773438 481.914062 329.230469 485.359375 333.480469 485.359375 L 443.328125 485.359375 L 439.546875 490.398438 C 437.339844 493.671875 435.273438 497.054688 433.394531 500.542969 L 432.679688 502 L 333.480469 502 C 329.230469 502 325.773438 505.445312 325.773438 509.691406 C 325.773438 513.945312 329.230469 517.390625 333.480469 517.390625 L 425.976562 517.390625 L 424.074219 522.59375 C 420.480469 534.148438 418.539062 546.433594 418.539062 559.171875 L 418.742188 563.234375 L 333.480469 563.230469 C 329.230469 563.230469 325.773438 566.675781 325.773438 570.925781 C 325.773438 575.175781 329.230469 578.621094 333.480469 578.621094 L 420.234375 578.621094 L 421.050781 583.957031 L 423.953125 595.261719 L 333.480469 595.261719 C 329.230469 595.261719 325.773438 598.707031 325.773438 602.957031 C 325.773438 607.207031 329.230469 610.652344 333.480469 610.652344 L 429.941406 610.652344 L 433.394531 617.800781 C 444.757812 638.710938 462.007812 655.964844 482.914062 667.324219 L 488.59375 670.058594 L 217.257812 670.058594 C 211.675781 670.058594 207.160156 665.542969 207.160156 659.96875 L 207.160156 191.429688 C 207.160156 185.855469 211.675781 181.335938 217.257812 181.335938 Z M 372.675781 139.929688 L 409.074219 139.929688 C 424.136719 139.929688 436.726562 150.617188 439.628906 164.824219 L 439.957031 168.109375 L 456.53125 168.109375 C 467.300781 168.109375 476.027344 176.828125 476.027344 187.585938 L 476.027344 200.652344 C 476.027344 211.40625 467.300781 220.128906 456.53125 220.128906 L 325.203125 220.128906 C 314.453125 220.128906 305.726562 211.40625 305.726562 200.652344 L 305.726562 187.585938 C 305.726562 176.828125 314.453125 168.109375 325.203125 168.109375 L 341.796875 168.109375 L 342.125 164.824219 C 345.027344 150.617188 357.617188 139.929688 372.675781 139.929688 Z M 372.675781 139.929688 " fill-opacity="1" fill-rule="evenodd"/></g></svg>