<svg xmlns="http://www.w3.org/2000/svg" xmlns:xlink="http://www.w3.org/1999/xlink" width="1080" zoomAndPan="magnify" viewBox="0 0 810 809.999993" height="1080" preserveAspectRatio="xMidYMid meet" version="1.0"><defs><clipPath id="3fe2991bba"><path d="M 126.5625 0 L 683.4375 0 C 753.335938 0 810 56.664062 810 126.5625 L 810 683.4375 C 810 753.335938 753.335938 810 683.4375 810 L 126.5625 810 C 56.664062 810 0 753.335938 0 683.4375 L 0 126.5625 C 0 56.664062 56.664062 0 126.5625 0 Z M 126.5625 0 " clip-rule="nonzero"/></clipPath><clipPath id="7cc4d88ace"><path d="M 227 163.535156 L 583 163.535156 L 583 646.535156 L 227 646.535156 Z M 227 163.535156 " clip-rule="nonzero"/></clipPath></defs><g clip-path="url(#3fe2991bba)"><rect x="-81" width="972" fill="#8a8a8a" y="-80.999999" height="971.999992" fill-opacity="1"/></g><g clip-path="url(#7cc4d88ace)"><path fill="#ffffff" d="M 404.996094 163.535156 C 306.769531 163.535156 227.128906 243.171875 227.128906 341.402344 C 227.128906 439.632812 404.996094 646.394531 404.996094 646.394531 C 404.996094 646.394531 582.863281 439.632812 582.863281 341.402344 C 582.863281 243.171875 503.226562 163.535156 404.996094 163.535156 Z M 404.996094 424.222656 C 359.253906 424.222656 322.175781 387.144531 322.175781 341.402344 C 322.175781 295.660156 359.253906 258.578125 404.996094 258.578125 C 450.738281 258.578125 487.820312 295.660156 487.820312 341.402344 C 487.820312 387.144531 450.738281 424.222656 404.996094 424.222656 Z M 404.996094 424.222656 " fill-opacity="1" fill-rule="nonzero"/></g></svg>